<svg width="395" height="96" viewBox="0 0 395 96" fill="none" xmlns="http://www.w3.org/2000/svg">
<path d="M17.395 48H19.495C19.705 48 19.845 47.86 19.845 47.65V41.07C19.845 40.86 19.985 40.72 20.195 40.72H25.97C31.605 40.72 35.665 37.5 35.665 31.9C35.665 26.3 31.605 23.045 25.97 23.045H17.395C17.185 23.045 17.045 23.185 17.045 23.395V47.65C17.045 47.86 17.185 48 17.395 48ZM20.195 38.165C19.985 38.165 19.845 38.025 19.845 37.815V25.95C19.845 25.74 19.985 25.6 20.195 25.6H25.62C29.05 25.6 32.865 26.86 32.865 31.9C32.865 36.94 29.085 38.165 25.62 38.165H20.195ZM54.997 45.445H44.077C43.867 45.445 43.727 45.305 43.727 45.095V37.465C43.727 37.255 43.867 37.115 44.077 37.115H51.672C51.882 37.115 52.022 36.975 52.022 36.765V34.91C52.022 34.7 51.882 34.56 51.672 34.56H44.077C43.867 34.56 43.727 34.42 43.727 34.21V25.95C43.727 25.74 43.867 25.6 44.077 25.6H54.647C54.857 25.6 54.997 25.46 54.997 25.25V23.395C54.997 23.185 54.857 23.045 54.647 23.045H41.277C41.067 23.045 40.927 23.185 40.927 23.395V47.65C40.927 47.86 41.067 48 41.277 48H54.997C55.207 48 55.347 47.86 55.347 47.65V45.795C55.347 45.585 55.207 45.445 54.997 45.445ZM83.682 35.54C83.682 28.4 77.907 23.045 70.697 23.045H62.262C62.052 23.045 61.912 23.185 61.912 23.395V47.65C61.912 47.86 62.052 48 62.262 48H70.697C77.907 48 83.682 42.645 83.682 35.54ZM80.882 35.54C80.882 40.405 77.102 45.445 70.837 45.445H65.062C64.852 45.445 64.712 45.305 64.712 45.095V25.95C64.712 25.74 64.852 25.6 65.062 25.6H70.837C77.102 25.6 80.882 30.675 80.882 35.54ZM89.4513 48H91.5513C91.7613 48 91.9013 47.86 91.9013 47.65V39.81C91.9013 39.6 92.0413 39.46 92.2513 39.46H99.3913C99.5663 39.46 99.7063 39.53 99.8113 39.705L103.906 47.755C104.011 47.93 104.151 48 104.326 48H106.636C106.881 48 107.021 47.825 106.881 47.58L102.471 39.075C102.366 38.9 102.401 38.655 102.576 38.585C104.851 37.395 107.091 35.12 107.091 31.235C107.091 26.16 103.486 23.045 98.4813 23.045H89.4513C89.2413 23.045 89.1013 23.185 89.1013 23.395V47.65C89.1013 47.86 89.2413 48 89.4513 48ZM92.2513 36.87C92.0413 36.87 91.9013 36.73 91.9013 36.52V25.95C91.9013 25.74 92.0413 25.6 92.2513 25.6H98.2363C101.456 25.6 104.291 27.21 104.291 31.235C104.291 35.19 101.001 36.87 98.9363 36.87H92.2513ZM123.256 22.94C116.046 22.94 111.146 28.295 111.146 35.505C111.146 42.715 116.046 48.105 123.256 48.105C130.466 48.105 135.366 42.715 135.366 35.505C135.366 28.295 130.466 22.94 123.256 22.94ZM123.256 25.495C128.716 25.495 132.566 29.52 132.566 35.505C132.566 41.525 128.716 45.55 123.256 45.55C117.796 45.55 113.946 41.525 113.946 35.505C113.946 29.52 117.796 25.495 123.256 25.495ZM168.269 23.395V38.9C168.269 42.715 167.639 45.55 163.614 45.55C160.744 45.55 159.554 43.135 159.274 41.63C159.239 41.385 159.169 41.245 158.924 41.28L156.859 41.56C156.649 41.595 156.439 41.665 156.509 41.91C157.139 44.85 159.204 48.105 163.614 48.105C170.194 48.105 171.034 43.31 171.034 38.97V23.395C171.034 23.185 170.929 23.045 170.719 23.045H168.619C168.409 23.045 168.269 23.185 168.269 23.395ZM176.338 48.105C177.283 48.105 178.088 47.3 178.088 46.355C178.088 45.41 177.283 44.605 176.338 44.605C175.393 44.605 174.588 45.41 174.588 46.355C174.588 47.3 175.393 48.105 176.338 48.105ZM222.691 23.255L213.206 39.11C213.101 39.32 212.856 39.32 212.716 39.11L203.231 23.255C203.126 23.08 202.951 23.045 202.776 23.045H201.341C201.131 23.045 200.991 23.185 200.991 23.395V47.65C200.991 47.86 201.131 48 201.341 48H203.441C203.651 48 203.791 47.86 203.791 47.65V29.8C203.791 29.485 204.036 29.415 204.211 29.66L212.716 43.835C212.856 44.045 213.066 44.045 213.206 43.835L221.746 29.625C221.921 29.38 222.166 29.485 222.166 29.8V47.65C222.166 47.86 222.306 48 222.516 48H224.616C224.826 48 224.966 47.86 224.966 47.65V23.395C224.966 23.185 224.826 23.045 224.616 23.045H223.146C222.971 23.045 222.796 23.08 222.691 23.255ZM244.287 15.38L241.067 20.175C240.892 20.385 241.102 20.595 241.347 20.595H242.817C242.992 20.595 243.132 20.56 243.237 20.385L246.772 15.555C246.947 15.345 246.842 15.135 246.562 15.135H244.707C244.532 15.135 244.357 15.205 244.287 15.38ZM240.437 23.29L230.147 47.58C230.042 47.825 230.147 48 230.392 48H232.457C232.632 48 232.772 47.93 232.842 47.755L235.047 42.575C235.117 42.4 235.292 42.33 235.467 42.33H247.472C247.647 42.33 247.787 42.4 247.857 42.575L250.062 47.755C250.132 47.93 250.307 48 250.482 48H252.547C252.792 48 252.897 47.825 252.792 47.58L242.502 23.29C242.432 23.115 242.257 23.045 242.082 23.045H240.857C240.682 23.045 240.507 23.115 240.437 23.29ZM236.412 39.32L241.242 27.805C241.347 27.56 241.627 27.56 241.732 27.805L246.527 39.32C246.632 39.565 246.527 39.74 246.282 39.74H236.657C236.412 39.74 236.307 39.565 236.412 39.32ZM257.846 48H259.946C260.156 48 260.296 47.86 260.296 47.65V39.81C260.296 39.6 260.436 39.46 260.646 39.46H267.786C267.961 39.46 268.101 39.53 268.206 39.705L272.301 47.755C272.406 47.93 272.546 48 272.721 48H275.031C275.276 48 275.416 47.825 275.276 47.58L270.866 39.075C270.761 38.9 270.796 38.655 270.971 38.585C273.246 37.395 275.486 35.12 275.486 31.235C275.486 26.16 271.881 23.045 266.876 23.045H257.846C257.636 23.045 257.496 23.185 257.496 23.395V47.65C257.496 47.86 257.636 48 257.846 48ZM260.646 36.87C260.436 36.87 260.296 36.73 260.296 36.52V25.95C260.296 25.74 260.436 25.6 260.646 25.6H266.631C269.851 25.6 272.686 27.21 272.686 31.235C272.686 35.19 269.396 36.87 267.331 36.87H260.646ZM306.951 46.775L303.801 43.695C305.516 41.525 306.461 38.69 306.461 35.505C306.461 28.295 301.561 22.94 294.351 22.94C287.141 22.94 282.241 28.295 282.241 35.505C282.241 42.715 287.141 48.105 294.351 48.105C297.396 48.105 299.986 47.16 302.016 45.515L305.201 48.63C305.341 48.805 305.551 48.77 305.726 48.63L306.986 47.265C307.126 47.125 307.126 46.95 306.951 46.775ZM294.351 45.55C288.891 45.55 285.041 41.525 285.041 35.505C285.041 29.52 288.891 25.495 294.351 25.495C299.811 25.495 303.661 29.52 303.661 35.505C303.661 37.99 302.996 40.125 301.841 41.805L299.041 39.075C298.901 38.935 298.691 38.935 298.551 39.075L297.291 40.44C297.116 40.58 297.116 40.755 297.291 40.93L300.091 43.66C298.551 44.85 296.591 45.55 294.351 45.55ZM329.33 23.395V37.255C329.295 42.82 326.74 45.55 322.015 45.55C317.22 45.55 314.665 42.785 314.665 37.255V23.395C314.665 23.185 314.525 23.045 314.315 23.045H312.215C312.005 23.045 311.865 23.185 311.865 23.395V37.255C311.865 41.945 313.58 48.105 322.015 48.105C330.415 48.105 332.13 41.945 332.13 37.255V23.395C332.13 23.185 331.99 23.045 331.78 23.045H329.68C329.47 23.045 329.33 23.185 329.33 23.395ZM352.646 45.445H341.726C341.516 45.445 341.376 45.305 341.376 45.095V37.465C341.376 37.255 341.516 37.115 341.726 37.115H349.321C349.531 37.115 349.671 36.975 349.671 36.765V34.91C349.671 34.7 349.531 34.56 349.321 34.56H341.726C341.516 34.56 341.376 34.42 341.376 34.21V25.95C341.376 25.74 341.516 25.6 341.726 25.6H352.296C352.506 25.6 352.646 25.46 352.646 25.25V23.395C352.646 23.185 352.506 23.045 352.296 23.045H338.926C338.716 23.045 338.576 23.185 338.576 23.395V47.65C338.576 47.86 338.716 48 338.926 48H352.646C352.856 48 352.996 47.86 352.996 47.65V45.795C352.996 45.585 352.856 45.445 352.646 45.445ZM379.47 23.045H360.15C359.94 23.045 359.8 23.185 359.8 23.395V25.25C359.8 25.46 359.94 25.6 360.15 25.6H375.585C375.865 25.6 375.97 25.845 375.795 26.055L359.94 45.69C359.835 45.83 359.8 45.97 359.8 46.145V47.65C359.8 47.86 359.94 48 360.15 48H379.47C379.68 48 379.82 47.895 379.82 47.65V45.795C379.82 45.585 379.68 45.445 379.47 45.445H364C363.72 45.445 363.615 45.2 363.79 44.99L379.68 25.32C379.785 25.18 379.82 25.075 379.82 24.9V23.395C379.82 23.185 379.68 23.045 379.47 23.045Z" fill="black"/>
<path d="M17.164 76H17.884C17.956 76 18.004 75.952 18.004 75.88V73.624C18.004 73.552 18.052 73.504 18.124 73.504H20.104C22.036 73.504 23.428 72.4 23.428 70.48C23.428 68.56 22.036 67.444 20.104 67.444H17.164C17.092 67.444 17.044 67.492 17.044 67.564V75.88C17.044 75.952 17.092 76 17.164 76ZM18.124 72.628C18.052 72.628 18.004 72.58 18.004 72.508V68.44C18.004 68.368 18.052 68.32 18.124 68.32H19.984C21.16 68.32 22.468 68.752 22.468 70.48C22.468 72.208 21.172 72.628 19.984 72.628H18.124ZM32.2569 67.564V71.368C32.2569 71.44 32.2089 71.488 32.1369 71.488H27.7929C27.7209 71.488 27.6729 71.44 27.6729 71.368V67.564C27.6729 67.492 27.6249 67.444 27.5529 67.444H26.8329C26.7609 67.444 26.7129 67.492 26.7129 67.564V75.88C26.7129 75.952 26.7609 76 26.8329 76H27.5529C27.6249 76 27.6729 75.952 27.6729 75.88V72.484C27.6729 72.412 27.7209 72.364 27.7929 72.364H32.1369C32.2089 72.364 32.2569 72.412 32.2569 72.484V75.88C32.2569 75.952 32.3049 76 32.3769 76H33.0969C33.1689 76 33.2169 75.952 33.2169 75.88V67.564C33.2169 67.492 33.1689 67.444 33.0969 67.444H32.3769C32.3049 67.444 32.2569 67.492 32.2569 67.564ZM40.9294 67.408C38.4574 67.408 36.7774 69.244 36.7774 71.716C36.7774 74.188 38.4574 76.036 40.9294 76.036C43.4014 76.036 45.0814 74.188 45.0814 71.716C45.0814 69.244 43.4014 67.408 40.9294 67.408ZM40.9294 68.284C42.8014 68.284 44.1214 69.664 44.1214 71.716C44.1214 73.78 42.8014 75.16 40.9294 75.16C39.0574 75.16 37.7374 73.78 37.7374 71.716C37.7374 69.664 39.0574 68.284 40.9294 68.284ZM53.1887 67.444H47.7287C47.6567 67.444 47.6087 67.492 47.6087 67.564V68.2C47.6087 68.272 47.6567 68.32 47.7287 68.32H49.8647C49.9367 68.32 49.9847 68.368 49.9847 68.44V75.88C49.9847 75.952 50.0327 76 50.1047 76H50.8247C50.8967 76 50.9447 75.952 50.9447 75.88V68.44C50.9447 68.368 50.9927 68.32 51.0647 68.32H53.1887C53.2607 68.32 53.3087 68.272 53.3087 68.2V67.564C53.3087 67.492 53.2607 67.444 53.1887 67.444ZM60.0976 67.408C57.6256 67.408 55.9456 69.244 55.9456 71.716C55.9456 74.188 57.6256 76.036 60.0976 76.036C62.5696 76.036 64.2496 74.188 64.2496 71.716C64.2496 69.244 62.5696 67.408 60.0976 67.408ZM60.0976 68.284C61.9696 68.284 63.2896 69.664 63.2896 71.716C63.2896 73.78 61.9696 75.16 60.0976 75.16C58.2256 75.16 56.9056 73.78 56.9056 71.716C56.9056 69.664 58.2256 68.284 60.0976 68.284ZM75.5672 71.368H71.8832C71.8112 71.368 71.7632 71.416 71.7632 71.488V72.016C71.7632 72.088 71.8112 72.136 71.8832 72.136H74.6192C74.6912 72.136 74.7272 72.184 74.7272 72.256C74.7272 73.444 73.7912 75.16 71.5592 75.16C69.5072 75.16 68.2592 73.492 68.2592 71.716C68.2592 69.952 69.5792 68.284 71.6192 68.284C72.9752 68.284 73.8992 69.148 74.2952 69.82C74.3432 69.892 74.4032 69.88 74.4752 69.856L75.1472 69.736C75.2192 69.712 75.1952 69.652 75.1592 69.58C74.6192 68.404 73.2272 67.408 71.5712 67.408C69.1832 67.408 67.2992 69.34 67.2992 71.716C67.2992 74.104 69.1472 76.036 71.5232 76.036C74.1152 76.036 75.6872 74.116 75.6872 71.716V71.488C75.6872 71.416 75.6392 71.368 75.5672 71.368ZM79.0512 76H79.7712C79.8432 76 79.8912 75.952 79.8912 75.88V73.192C79.8912 73.12 79.9392 73.072 80.0112 73.072H82.4592C82.5192 73.072 82.5672 73.096 82.6032 73.156L84.0072 75.916C84.0432 75.976 84.0912 76 84.1512 76H84.9432C85.0272 76 85.0752 75.94 85.0272 75.856L83.5152 72.94C83.4792 72.88 83.4912 72.796 83.5512 72.772C84.3312 72.364 85.0992 71.584 85.0992 70.252C85.0992 68.512 83.8632 67.444 82.1472 67.444H79.0512C78.9792 67.444 78.9312 67.492 78.9312 67.564V75.88C78.9312 75.952 78.9792 76 79.0512 76ZM80.0112 72.184C79.9392 72.184 79.8912 72.136 79.8912 72.064V68.44C79.8912 68.368 79.9392 68.32 80.0112 68.32H82.0632C83.1672 68.32 84.1392 68.872 84.1392 70.252C84.1392 71.608 83.0112 72.184 82.3032 72.184H80.0112ZM91.5574 67.528L88.0294 75.856C87.9934 75.94 88.0294 76 88.1134 76H88.8214C88.8814 76 88.9294 75.976 88.9534 75.916L89.7094 74.14C89.7334 74.08 89.7934 74.056 89.8534 74.056H93.9694C94.0294 74.056 94.0774 74.08 94.1014 74.14L94.8574 75.916C94.8814 75.976 94.9414 76 95.0014 76H95.7094C95.7934 76 95.8294 75.94 95.7934 75.856L92.2654 67.528C92.2414 67.468 92.1814 67.444 92.1214 67.444H91.7014C91.6414 67.444 91.5814 67.468 91.5574 67.528ZM90.1774 73.024L91.8334 69.076C91.8694 68.992 91.9654 68.992 92.0014 69.076L93.6454 73.024C93.6814 73.108 93.6454 73.168 93.5614 73.168H90.2614C90.1774 73.168 90.1414 73.108 90.1774 73.024ZM99.3326 76H100.053C100.125 76 100.173 75.952 100.173 75.88V73.624C100.173 73.552 100.221 73.504 100.293 73.504H102.273C104.205 73.504 105.597 72.4 105.597 70.48C105.597 68.56 104.205 67.444 102.273 67.444H99.3326C99.2606 67.444 99.2126 67.492 99.2126 67.564V75.88C99.2126 75.952 99.2606 76 99.3326 76ZM100.293 72.628C100.221 72.628 100.173 72.58 100.173 72.508V68.44C100.173 68.368 100.221 68.32 100.293 68.32H102.153C103.329 68.32 104.637 68.752 104.637 70.48C104.637 72.208 103.341 72.628 102.153 72.628H100.293ZM114.425 67.564V71.368C114.425 71.44 114.377 71.488 114.305 71.488H109.961C109.889 71.488 109.841 71.44 109.841 71.368V67.564C109.841 67.492 109.793 67.444 109.721 67.444H109.001C108.929 67.444 108.881 67.492 108.881 67.564V75.88C108.881 75.952 108.929 76 109.001 76H109.721C109.793 76 109.841 75.952 109.841 75.88V72.484C109.841 72.412 109.889 72.364 109.961 72.364H114.305C114.377 72.364 114.425 72.412 114.425 72.484V75.88C114.425 75.952 114.473 76 114.545 76H115.265C115.337 76 115.385 75.952 115.385 75.88V67.564C115.385 67.492 115.337 67.444 115.265 67.444H114.545C114.473 67.444 114.425 67.492 114.425 67.564ZM123.978 75.124H120.234C120.162 75.124 120.114 75.076 120.114 75.004V72.388C120.114 72.316 120.162 72.268 120.234 72.268H122.838C122.91 72.268 122.958 72.22 122.958 72.148V71.512C122.958 71.44 122.91 71.392 122.838 71.392H120.234C120.162 71.392 120.114 71.344 120.114 71.272V68.44C120.114 68.368 120.162 68.32 120.234 68.32H123.858C123.93 68.32 123.978 68.272 123.978 68.2V67.564C123.978 67.492 123.93 67.444 123.858 67.444H119.274C119.202 67.444 119.154 67.492 119.154 67.564V75.88C119.154 75.952 119.202 76 119.274 76H123.978C124.05 76 124.098 75.952 124.098 75.88V75.244C124.098 75.172 124.05 75.124 123.978 75.124ZM127.663 76H128.383C128.455 76 128.503 75.952 128.503 75.88V73.192C128.503 73.12 128.551 73.072 128.623 73.072H131.071C131.131 73.072 131.179 73.096 131.215 73.156L132.619 75.916C132.655 75.976 132.703 76 132.763 76H133.555C133.639 76 133.687 75.94 133.639 75.856L132.127 72.94C132.091 72.88 132.103 72.796 132.163 72.772C132.943 72.364 133.711 71.584 133.711 70.252C133.711 68.512 132.475 67.444 130.759 67.444H127.663C127.591 67.444 127.543 67.492 127.543 67.564V75.88C127.543 75.952 127.591 76 127.663 76ZM128.623 72.184C128.551 72.184 128.503 72.136 128.503 72.064V68.44C128.503 68.368 128.551 68.32 128.623 68.32H130.675C131.779 68.32 132.751 68.872 132.751 70.252C132.751 71.608 131.623 72.184 130.915 72.184H128.623Z" fill="black"/>
<path d="M190.884 72.616V71.98C190.884 71.908 190.836 71.86 190.764 71.86H181.404C181.332 71.86 181.284 71.908 181.284 71.98V72.616C181.284 72.688 181.332 72.736 181.404 72.736H190.764C190.836 72.736 190.884 72.688 190.884 72.616Z" fill="black"/>
<path d="M243.752 73.696C243.56 74.188 242.624 75.16 241.256 75.16C239.36 75.16 238.124 73.648 238.124 71.704C238.124 69.772 239.36 68.284 241.256 68.284C242.624 68.284 243.56 69.244 243.752 69.736C243.788 69.82 243.848 69.796 243.92 69.784L244.604 69.688C244.7 69.676 244.664 69.604 244.652 69.544C244.28 68.464 242.924 67.396 241.28 67.396C238.712 67.396 237.164 69.436 237.164 71.704C237.164 73.984 238.712 76.036 241.28 76.036C242.924 76.036 244.292 74.98 244.652 73.9C244.664 73.84 244.676 73.756 244.604 73.744L243.92 73.648C243.86 73.636 243.788 73.612 243.752 73.696ZM249.369 75.88V67.564C249.369 67.492 249.321 67.444 249.249 67.444H248.529C248.457 67.444 248.409 67.492 248.409 67.564V75.88C248.409 75.952 248.457 76 248.529 76H249.249C249.321 76 249.369 75.952 249.369 75.88ZM259.852 75.88V67.564C259.852 67.492 259.804 67.444 259.732 67.444H259.012C258.94 67.444 258.892 67.492 258.892 67.564V73.96C258.892 74.068 258.832 74.128 258.748 74.02L253.936 67.516C253.9 67.468 253.852 67.444 253.792 67.444H253.288C253.216 67.444 253.168 67.492 253.168 67.564V75.88C253.168 75.952 253.216 76 253.288 76H254.008C254.08 76 254.128 75.952 254.128 75.88V69.484C254.128 69.376 254.188 69.316 254.272 69.424L259.072 75.928C259.108 75.976 259.156 76 259.216 76H259.732C259.804 76 259.852 75.952 259.852 75.88ZM268.441 75.124H264.697C264.625 75.124 264.577 75.076 264.577 75.004V72.388C264.577 72.316 264.625 72.268 264.697 72.268H267.301C267.373 72.268 267.421 72.22 267.421 72.148V71.512C267.421 71.44 267.373 71.392 267.301 71.392H264.697C264.625 71.392 264.577 71.344 264.577 71.272V68.44C264.577 68.368 264.625 68.32 264.697 68.32H268.321C268.393 68.32 268.441 68.272 268.441 68.2V67.564C268.441 67.492 268.393 67.444 268.321 67.444H263.737C263.665 67.444 263.617 67.492 263.617 67.564V75.88C263.617 75.952 263.665 76 263.737 76H268.441C268.513 76 268.561 75.952 268.561 75.88V75.244C268.561 75.172 268.513 75.124 268.441 75.124ZM279.741 67.516L276.489 72.952C276.453 73.024 276.369 73.024 276.321 72.952L273.069 67.516C273.033 67.456 272.973 67.444 272.913 67.444H272.421C272.349 67.444 272.301 67.492 272.301 67.564V75.88C272.301 75.952 272.349 76 272.421 76H273.141C273.213 76 273.261 75.952 273.261 75.88V69.76C273.261 69.652 273.345 69.628 273.405 69.712L276.321 74.572C276.369 74.644 276.441 74.644 276.489 74.572L279.417 69.7C279.477 69.616 279.561 69.652 279.561 69.76V75.88C279.561 75.952 279.609 76 279.681 76H280.401C280.473 76 280.521 75.952 280.521 75.88V67.564C280.521 67.492 280.473 67.444 280.401 67.444H279.897C279.837 67.444 279.777 67.456 279.741 67.516ZM287.385 67.528L283.857 75.856C283.821 75.94 283.857 76 283.941 76H284.649C284.709 76 284.757 75.976 284.781 75.916L285.537 74.14C285.561 74.08 285.621 74.056 285.681 74.056H289.797C289.857 74.056 289.905 74.08 289.929 74.14L290.685 75.916C290.709 75.976 290.769 76 290.829 76H291.537C291.621 76 291.657 75.94 291.621 75.856L288.093 67.528C288.069 67.468 288.009 67.444 287.949 67.444H287.529C287.469 67.444 287.409 67.468 287.385 67.528ZM286.005 73.024L287.661 69.076C287.697 68.992 287.793 68.992 287.829 69.076L289.473 73.024C289.509 73.108 289.473 73.168 289.389 73.168H286.089C286.005 73.168 285.969 73.108 286.005 73.024ZM298.765 67.444H293.305C293.233 67.444 293.185 67.492 293.185 67.564V68.2C293.185 68.272 293.233 68.32 293.305 68.32H295.441C295.513 68.32 295.561 68.368 295.561 68.44V75.88C295.561 75.952 295.609 76 295.681 76H296.401C296.473 76 296.521 75.952 296.521 75.88V68.44C296.521 68.368 296.569 68.32 296.641 68.32H298.765C298.837 68.32 298.885 68.272 298.885 68.2V67.564C298.885 67.492 298.837 67.444 298.765 67.444ZM305.674 67.408C303.202 67.408 301.522 69.244 301.522 71.716C301.522 74.188 303.202 76.036 305.674 76.036C308.146 76.036 309.826 74.188 309.826 71.716C309.826 69.244 308.146 67.408 305.674 67.408ZM305.674 68.284C307.546 68.284 308.866 69.664 308.866 71.716C308.866 73.78 307.546 75.16 305.674 75.16C303.802 75.16 302.482 73.78 302.482 71.716C302.482 69.664 303.802 68.284 305.674 68.284ZM321.144 71.368H317.46C317.388 71.368 317.34 71.416 317.34 71.488V72.016C317.34 72.088 317.388 72.136 317.46 72.136H320.196C320.268 72.136 320.304 72.184 320.304 72.256C320.304 73.444 319.368 75.16 317.136 75.16C315.084 75.16 313.836 73.492 313.836 71.716C313.836 69.952 315.156 68.284 317.196 68.284C318.552 68.284 319.476 69.148 319.872 69.82C319.92 69.892 319.98 69.88 320.052 69.856L320.724 69.736C320.796 69.712 320.772 69.652 320.736 69.58C320.196 68.404 318.804 67.408 317.148 67.408C314.76 67.408 312.876 69.34 312.876 71.716C312.876 74.104 314.724 76.036 317.1 76.036C319.692 76.036 321.264 74.116 321.264 71.716V71.488C321.264 71.416 321.216 71.368 321.144 71.368ZM324.628 76H325.348C325.42 76 325.468 75.952 325.468 75.88V73.192C325.468 73.12 325.516 73.072 325.588 73.072H328.036C328.096 73.072 328.144 73.096 328.18 73.156L329.584 75.916C329.62 75.976 329.668 76 329.728 76H330.52C330.604 76 330.652 75.94 330.604 75.856L329.092 72.94C329.056 72.88 329.068 72.796 329.128 72.772C329.908 72.364 330.676 71.584 330.676 70.252C330.676 68.512 329.44 67.444 327.724 67.444H324.628C324.556 67.444 324.508 67.492 324.508 67.564V75.88C324.508 75.952 324.556 76 324.628 76ZM325.588 72.184C325.516 72.184 325.468 72.136 325.468 72.064V68.44C325.468 68.368 325.516 68.32 325.588 68.32H327.64C328.744 68.32 329.716 68.872 329.716 70.252C329.716 71.608 328.588 72.184 327.88 72.184H325.588ZM337.134 67.528L333.606 75.856C333.57 75.94 333.606 76 333.69 76H334.398C334.458 76 334.506 75.976 334.53 75.916L335.286 74.14C335.31 74.08 335.37 74.056 335.43 74.056H339.546C339.606 74.056 339.654 74.08 339.678 74.14L340.434 75.916C340.458 75.976 340.518 76 340.578 76H341.286C341.37 76 341.406 75.94 341.37 75.856L337.842 67.528C337.818 67.468 337.758 67.444 337.698 67.444H337.278C337.218 67.444 337.158 67.468 337.134 67.528ZM335.754 73.024L337.41 69.076C337.446 68.992 337.542 68.992 337.578 69.076L339.222 73.024C339.258 73.108 339.222 73.168 339.138 73.168H335.838C335.754 73.168 335.718 73.108 335.754 73.024ZM344.909 76H345.629C345.701 76 345.749 75.952 345.749 75.88V73.624C345.749 73.552 345.797 73.504 345.869 73.504H347.849C349.781 73.504 351.173 72.4 351.173 70.48C351.173 68.56 349.781 67.444 347.849 67.444H344.909C344.837 67.444 344.789 67.492 344.789 67.564V75.88C344.789 75.952 344.837 76 344.909 76ZM345.869 72.628C345.797 72.628 345.749 72.58 345.749 72.508V68.44C345.749 68.368 345.797 68.32 345.869 68.32H347.729C348.905 68.32 350.213 68.752 350.213 70.48C350.213 72.208 348.917 72.628 347.729 72.628H345.869ZM360.002 67.564V71.368C360.002 71.44 359.954 71.488 359.882 71.488H355.538C355.466 71.488 355.418 71.44 355.418 71.368V67.564C355.418 67.492 355.37 67.444 355.298 67.444H354.578C354.506 67.444 354.458 67.492 354.458 67.564V75.88C354.458 75.952 354.506 76 354.578 76H355.298C355.37 76 355.418 75.952 355.418 75.88V72.484C355.418 72.412 355.466 72.364 355.538 72.364H359.882C359.954 72.364 360.002 72.412 360.002 72.484V75.88C360.002 75.952 360.05 76 360.122 76H360.842C360.914 76 360.962 75.952 360.962 75.88V67.564C360.962 67.492 360.914 67.444 360.842 67.444H360.122C360.05 67.444 360.002 67.492 360.002 67.564ZM369.555 75.124H365.811C365.739 75.124 365.691 75.076 365.691 75.004V72.388C365.691 72.316 365.739 72.268 365.811 72.268H368.415C368.487 72.268 368.535 72.22 368.535 72.148V71.512C368.535 71.44 368.487 71.392 368.415 71.392H365.811C365.739 71.392 365.691 71.344 365.691 71.272V68.44C365.691 68.368 365.739 68.32 365.811 68.32H369.435C369.507 68.32 369.555 68.272 369.555 68.2V67.564C369.555 67.492 369.507 67.444 369.435 67.444H364.851C364.779 67.444 364.731 67.492 364.731 67.564V75.88C364.731 75.952 364.779 76 364.851 76H369.555C369.627 76 369.675 75.952 369.675 75.88V75.244C369.675 75.172 369.627 75.124 369.555 75.124ZM373.239 76H373.959C374.031 76 374.079 75.952 374.079 75.88V73.192C374.079 73.12 374.127 73.072 374.199 73.072H376.647C376.707 73.072 376.755 73.096 376.791 73.156L378.195 75.916C378.231 75.976 378.279 76 378.339 76H379.131C379.215 76 379.263 75.94 379.215 75.856L377.703 72.94C377.667 72.88 377.679 72.796 377.739 72.772C378.519 72.364 379.287 71.584 379.287 70.252C379.287 68.512 378.051 67.444 376.335 67.444H373.239C373.167 67.444 373.119 67.492 373.119 67.564V75.88C373.119 75.952 373.167 76 373.239 76ZM374.199 72.184C374.127 72.184 374.079 72.136 374.079 72.064V68.44C374.079 68.368 374.127 68.32 374.199 68.32H376.251C377.355 68.32 378.327 68.872 378.327 70.252C378.327 71.608 377.199 72.184 376.491 72.184H374.199Z" fill="black"/>
</svg>
