<svg width="369" height="68" viewBox="0 0 369 68" fill="none" xmlns="http://www.w3.org/2000/svg">
<path d="M3.395 35H5.495C5.705 35 5.845 34.86 5.845 34.65V28.07C5.845 27.86 5.985 27.72 6.195 27.72H11.97C17.605 27.72 21.665 24.5 21.665 18.9C21.665 13.3 17.605 10.045 11.97 10.045H3.395C3.185 10.045 3.045 10.185 3.045 10.395V34.65C3.045 34.86 3.185 35 3.395 35ZM6.195 25.165C5.985 25.165 5.845 25.025 5.845 24.815V12.95C5.845 12.74 5.985 12.6 6.195 12.6H11.62C15.05 12.6 18.865 13.86 18.865 18.9C18.865 23.94 15.085 25.165 11.62 25.165H6.195ZM40.997 32.445H30.077C29.867 32.445 29.727 32.305 29.727 32.095V24.465C29.727 24.255 29.867 24.115 30.077 24.115H37.672C37.882 24.115 38.022 23.975 38.022 23.765V21.91C38.022 21.7 37.882 21.56 37.672 21.56H30.077C29.867 21.56 29.727 21.42 29.727 21.21V12.95C29.727 12.74 29.867 12.6 30.077 12.6H40.647C40.857 12.6 40.997 12.46 40.997 12.25V10.395C40.997 10.185 40.857 10.045 40.647 10.045H27.277C27.067 10.045 26.927 10.185 26.927 10.395V34.65C26.927 34.86 27.067 35 27.277 35H40.997C41.207 35 41.347 34.86 41.347 34.65V32.795C41.347 32.585 41.207 32.445 40.997 32.445ZM69.682 22.54C69.682 15.4 63.907 10.045 56.697 10.045H48.262C48.052 10.045 47.912 10.185 47.912 10.395V34.65C47.912 34.86 48.052 35 48.262 35H56.697C63.907 35 69.682 29.645 69.682 22.54ZM66.882 22.54C66.882 27.405 63.102 32.445 56.837 32.445H51.062C50.852 32.445 50.712 32.305 50.712 32.095V12.95C50.712 12.74 50.852 12.6 51.062 12.6H56.837C63.102 12.6 66.882 17.675 66.882 22.54ZM75.4513 35H77.5513C77.7613 35 77.9013 34.86 77.9013 34.65V26.81C77.9013 26.6 78.0413 26.46 78.2513 26.46H85.3913C85.5663 26.46 85.7063 26.53 85.8113 26.705L89.9063 34.755C90.0113 34.93 90.1513 35 90.3263 35H92.6363C92.8813 35 93.0213 34.825 92.8813 34.58L88.4713 26.075C88.3663 25.9 88.4013 25.655 88.5763 25.585C90.8513 24.395 93.0913 22.12 93.0913 18.235C93.0913 13.16 89.4863 10.045 84.4813 10.045H75.4513C75.2413 10.045 75.1013 10.185 75.1013 10.395V34.65C75.1013 34.86 75.2413 35 75.4513 35ZM78.2513 23.87C78.0413 23.87 77.9013 23.73 77.9013 23.52V12.95C77.9013 12.74 78.0413 12.6 78.2513 12.6H84.2363C87.4563 12.6 90.2913 14.21 90.2913 18.235C90.2913 22.19 87.0013 23.87 84.9363 23.87H78.2513ZM109.256 9.94C102.046 9.94 97.1458 15.295 97.1458 22.505C97.1458 29.715 102.046 35.105 109.256 35.105C116.466 35.105 121.366 29.715 121.366 22.505C121.366 15.295 116.466 9.94 109.256 9.94ZM109.256 12.495C114.716 12.495 118.566 16.52 118.566 22.505C118.566 28.525 114.716 32.55 109.256 32.55C103.796 32.55 99.9458 28.525 99.9458 22.505C99.9458 16.52 103.796 12.495 109.256 12.495ZM154.269 10.395V25.9C154.269 29.715 153.639 32.55 149.614 32.55C146.744 32.55 145.554 30.135 145.274 28.63C145.239 28.385 145.169 28.245 144.924 28.28L142.859 28.56C142.649 28.595 142.439 28.665 142.509 28.91C143.139 31.85 145.204 35.105 149.614 35.105C156.194 35.105 157.034 30.31 157.034 25.97V10.395C157.034 10.185 156.929 10.045 156.719 10.045H154.619C154.409 10.045 154.269 10.185 154.269 10.395ZM162.338 35.105C163.283 35.105 164.088 34.3 164.088 33.355C164.088 32.41 163.283 31.605 162.338 31.605C161.393 31.605 160.588 32.41 160.588 33.355C160.588 34.3 161.393 35.105 162.338 35.105ZM208.691 10.255L199.206 26.11C199.101 26.32 198.856 26.32 198.716 26.11L189.231 10.255C189.126 10.08 188.951 10.045 188.776 10.045H187.341C187.131 10.045 186.991 10.185 186.991 10.395V34.65C186.991 34.86 187.131 35 187.341 35H189.441C189.651 35 189.791 34.86 189.791 34.65V16.8C189.791 16.485 190.036 16.415 190.211 16.66L198.716 30.835C198.856 31.045 199.066 31.045 199.206 30.835L207.746 16.625C207.921 16.38 208.166 16.485 208.166 16.8V34.65C208.166 34.86 208.306 35 208.516 35H210.616C210.826 35 210.966 34.86 210.966 34.65V10.395C210.966 10.185 210.826 10.045 210.616 10.045H209.146C208.971 10.045 208.796 10.08 208.691 10.255ZM230.287 2.38L227.067 7.175C226.892 7.385 227.102 7.595 227.347 7.595H228.817C228.992 7.595 229.132 7.56 229.237 7.385L232.772 2.555C232.947 2.345 232.842 2.135 232.562 2.135H230.707C230.532 2.135 230.357 2.205 230.287 2.38ZM226.437 10.29L216.147 34.58C216.042 34.825 216.147 35 216.392 35H218.457C218.632 35 218.772 34.93 218.842 34.755L221.047 29.575C221.117 29.4 221.292 29.33 221.467 29.33H233.472C233.647 29.33 233.787 29.4 233.857 29.575L236.062 34.755C236.132 34.93 236.307 35 236.482 35H238.547C238.792 35 238.897 34.825 238.792 34.58L228.502 10.29C228.432 10.115 228.257 10.045 228.082 10.045H226.857C226.682 10.045 226.507 10.115 226.437 10.29ZM222.412 26.32L227.242 14.805C227.347 14.56 227.627 14.56 227.732 14.805L232.527 26.32C232.632 26.565 232.527 26.74 232.282 26.74H222.657C222.412 26.74 222.307 26.565 222.412 26.32ZM243.846 35H245.946C246.156 35 246.296 34.86 246.296 34.65V26.81C246.296 26.6 246.436 26.46 246.646 26.46H253.786C253.961 26.46 254.101 26.53 254.206 26.705L258.301 34.755C258.406 34.93 258.546 35 258.721 35H261.031C261.276 35 261.416 34.825 261.276 34.58L256.866 26.075C256.761 25.9 256.796 25.655 256.971 25.585C259.246 24.395 261.486 22.12 261.486 18.235C261.486 13.16 257.881 10.045 252.876 10.045H243.846C243.636 10.045 243.496 10.185 243.496 10.395V34.65C243.496 34.86 243.636 35 243.846 35ZM246.646 23.87C246.436 23.87 246.296 23.73 246.296 23.52V12.95C246.296 12.74 246.436 12.6 246.646 12.6H252.631C255.851 12.6 258.686 14.21 258.686 18.235C258.686 22.19 255.396 23.87 253.331 23.87H246.646ZM292.951 33.775L289.801 30.695C291.516 28.525 292.461 25.69 292.461 22.505C292.461 15.295 287.561 9.94 280.351 9.94C273.141 9.94 268.241 15.295 268.241 22.505C268.241 29.715 273.141 35.105 280.351 35.105C283.396 35.105 285.986 34.16 288.016 32.515L291.201 35.63C291.341 35.805 291.551 35.77 291.726 35.63L292.986 34.265C293.126 34.125 293.126 33.95 292.951 33.775ZM280.351 32.55C274.891 32.55 271.041 28.525 271.041 22.505C271.041 16.52 274.891 12.495 280.351 12.495C285.811 12.495 289.661 16.52 289.661 22.505C289.661 24.99 288.996 27.125 287.841 28.805L285.041 26.075C284.901 25.935 284.691 25.935 284.551 26.075L283.291 27.44C283.116 27.58 283.116 27.755 283.291 27.93L286.091 30.66C284.551 31.85 282.591 32.55 280.351 32.55ZM315.33 10.395V24.255C315.295 29.82 312.74 32.55 308.015 32.55C303.22 32.55 300.665 29.785 300.665 24.255V10.395C300.665 10.185 300.525 10.045 300.315 10.045H298.215C298.005 10.045 297.865 10.185 297.865 10.395V24.255C297.865 28.945 299.58 35.105 308.015 35.105C316.415 35.105 318.13 28.945 318.13 24.255V10.395C318.13 10.185 317.99 10.045 317.78 10.045H315.68C315.47 10.045 315.33 10.185 315.33 10.395ZM338.646 32.445H327.726C327.516 32.445 327.376 32.305 327.376 32.095V24.465C327.376 24.255 327.516 24.115 327.726 24.115H335.321C335.531 24.115 335.671 23.975 335.671 23.765V21.91C335.671 21.7 335.531 21.56 335.321 21.56H327.726C327.516 21.56 327.376 21.42 327.376 21.21V12.95C327.376 12.74 327.516 12.6 327.726 12.6H338.296C338.506 12.6 338.646 12.46 338.646 12.25V10.395C338.646 10.185 338.506 10.045 338.296 10.045H324.926C324.716 10.045 324.576 10.185 324.576 10.395V34.65C324.576 34.86 324.716 35 324.926 35H338.646C338.856 35 338.996 34.86 338.996 34.65V32.795C338.996 32.585 338.856 32.445 338.646 32.445ZM365.47 10.045H346.15C345.94 10.045 345.8 10.185 345.8 10.395V12.25C345.8 12.46 345.94 12.6 346.15 12.6H361.585C361.865 12.6 361.97 12.845 361.795 13.055L345.94 32.69C345.835 32.83 345.8 32.97 345.8 33.145V34.65C345.8 34.86 345.94 35 346.15 35H365.47C365.68 35 365.82 34.895 365.82 34.65V32.795C365.82 32.585 365.68 32.445 365.47 32.445H350C349.72 32.445 349.615 32.2 349.79 31.99L365.68 12.32C365.785 12.18 365.82 12.075 365.82 11.9V10.395C365.82 10.185 365.68 10.045 365.47 10.045Z" fill="white"/>
<path d="M3.164 63H3.884C3.956 63 4.004 62.952 4.004 62.88V60.624C4.004 60.552 4.052 60.504 4.124 60.504H6.104C8.036 60.504 9.428 59.4 9.428 57.48C9.428 55.56 8.036 54.444 6.104 54.444H3.164C3.092 54.444 3.044 54.492 3.044 54.564V62.88C3.044 62.952 3.092 63 3.164 63ZM4.124 59.628C4.052 59.628 4.004 59.58 4.004 59.508V55.44C4.004 55.368 4.052 55.32 4.124 55.32H5.984C7.16 55.32 8.468 55.752 8.468 57.48C8.468 59.208 7.172 59.628 5.984 59.628H4.124ZM18.2569 54.564V58.368C18.2569 58.44 18.2089 58.488 18.1369 58.488H13.7929C13.7209 58.488 13.6729 58.44 13.6729 58.368V54.564C13.6729 54.492 13.6249 54.444 13.5529 54.444H12.8329C12.7609 54.444 12.7129 54.492 12.7129 54.564V62.88C12.7129 62.952 12.7609 63 12.8329 63H13.5529C13.6249 63 13.6729 62.952 13.6729 62.88V59.484C13.6729 59.412 13.7209 59.364 13.7929 59.364H18.1369C18.2089 59.364 18.2569 59.412 18.2569 59.484V62.88C18.2569 62.952 18.3049 63 18.3769 63H19.0969C19.1689 63 19.2169 62.952 19.2169 62.88V54.564C19.2169 54.492 19.1689 54.444 19.0969 54.444H18.3769C18.3049 54.444 18.2569 54.492 18.2569 54.564ZM26.9294 54.408C24.4574 54.408 22.7774 56.244 22.7774 58.716C22.7774 61.188 24.4574 63.036 26.9294 63.036C29.4014 63.036 31.0814 61.188 31.0814 58.716C31.0814 56.244 29.4014 54.408 26.9294 54.408ZM26.9294 55.284C28.8014 55.284 30.1214 56.664 30.1214 58.716C30.1214 60.78 28.8014 62.16 26.9294 62.16C25.0574 62.16 23.7374 60.78 23.7374 58.716C23.7374 56.664 25.0574 55.284 26.9294 55.284ZM39.1887 54.444H33.7287C33.6567 54.444 33.6087 54.492 33.6087 54.564V55.2C33.6087 55.272 33.6567 55.32 33.7287 55.32H35.8647C35.9367 55.32 35.9847 55.368 35.9847 55.44V62.88C35.9847 62.952 36.0327 63 36.1047 63H36.8247C36.8967 63 36.9447 62.952 36.9447 62.88V55.44C36.9447 55.368 36.9927 55.32 37.0647 55.32H39.1887C39.2607 55.32 39.3087 55.272 39.3087 55.2V54.564C39.3087 54.492 39.2607 54.444 39.1887 54.444ZM46.0976 54.408C43.6256 54.408 41.9456 56.244 41.9456 58.716C41.9456 61.188 43.6256 63.036 46.0976 63.036C48.5696 63.036 50.2496 61.188 50.2496 58.716C50.2496 56.244 48.5696 54.408 46.0976 54.408ZM46.0976 55.284C47.9696 55.284 49.2896 56.664 49.2896 58.716C49.2896 60.78 47.9696 62.16 46.0976 62.16C44.2256 62.16 42.9056 60.78 42.9056 58.716C42.9056 56.664 44.2256 55.284 46.0976 55.284ZM61.5672 58.368H57.8832C57.8112 58.368 57.7632 58.416 57.7632 58.488V59.016C57.7632 59.088 57.8112 59.136 57.8832 59.136H60.6192C60.6912 59.136 60.7272 59.184 60.7272 59.256C60.7272 60.444 59.7912 62.16 57.5592 62.16C55.5072 62.16 54.2592 60.492 54.2592 58.716C54.2592 56.952 55.5792 55.284 57.6192 55.284C58.9752 55.284 59.8992 56.148 60.2952 56.82C60.3432 56.892 60.4032 56.88 60.4752 56.856L61.1472 56.736C61.2192 56.712 61.1952 56.652 61.1592 56.58C60.6192 55.404 59.2272 54.408 57.5712 54.408C55.1832 54.408 53.2992 56.34 53.2992 58.716C53.2992 61.104 55.1472 63.036 57.5232 63.036C60.1152 63.036 61.6872 61.116 61.6872 58.716V58.488C61.6872 58.416 61.6392 58.368 61.5672 58.368ZM65.0512 63H65.7712C65.8432 63 65.8912 62.952 65.8912 62.88V60.192C65.8912 60.12 65.9392 60.072 66.0112 60.072H68.4592C68.5192 60.072 68.5672 60.096 68.6032 60.156L70.0072 62.916C70.0432 62.976 70.0912 63 70.1512 63H70.9432C71.0272 63 71.0752 62.94 71.0272 62.856L69.5152 59.94C69.4792 59.88 69.4912 59.796 69.5512 59.772C70.3312 59.364 71.0992 58.584 71.0992 57.252C71.0992 55.512 69.8632 54.444 68.1472 54.444H65.0512C64.9792 54.444 64.9312 54.492 64.9312 54.564V62.88C64.9312 62.952 64.9792 63 65.0512 63ZM66.0112 59.184C65.9392 59.184 65.8912 59.136 65.8912 59.064V55.44C65.8912 55.368 65.9392 55.32 66.0112 55.32H68.0632C69.1672 55.32 70.1392 55.872 70.1392 57.252C70.1392 58.608 69.0112 59.184 68.3032 59.184H66.0112ZM77.5574 54.528L74.0294 62.856C73.9934 62.94 74.0294 63 74.1134 63H74.8214C74.8814 63 74.9294 62.976 74.9534 62.916L75.7094 61.14C75.7334 61.08 75.7934 61.056 75.8534 61.056H79.9694C80.0294 61.056 80.0774 61.08 80.1014 61.14L80.8574 62.916C80.8814 62.976 80.9414 63 81.0014 63H81.7094C81.7934 63 81.8294 62.94 81.7934 62.856L78.2654 54.528C78.2414 54.468 78.1814 54.444 78.1214 54.444H77.7014C77.6414 54.444 77.5814 54.468 77.5574 54.528ZM76.1774 60.024L77.8334 56.076C77.8694 55.992 77.9654 55.992 78.0014 56.076L79.6454 60.024C79.6814 60.108 79.6454 60.168 79.5614 60.168H76.2614C76.1774 60.168 76.1414 60.108 76.1774 60.024ZM85.3326 63H86.0526C86.1246 63 86.1726 62.952 86.1726 62.88V60.624C86.1726 60.552 86.2206 60.504 86.2926 60.504H88.2726C90.2046 60.504 91.5966 59.4 91.5966 57.48C91.5966 55.56 90.2046 54.444 88.2726 54.444H85.3326C85.2606 54.444 85.2126 54.492 85.2126 54.564V62.88C85.2126 62.952 85.2606 63 85.3326 63ZM86.2926 59.628C86.2206 59.628 86.1726 59.58 86.1726 59.508V55.44C86.1726 55.368 86.2206 55.32 86.2926 55.32H88.1526C89.3286 55.32 90.6366 55.752 90.6366 57.48C90.6366 59.208 89.3406 59.628 88.1526 59.628H86.2926ZM100.425 54.564V58.368C100.425 58.44 100.377 58.488 100.305 58.488H95.9615C95.8895 58.488 95.8415 58.44 95.8415 58.368V54.564C95.8415 54.492 95.7935 54.444 95.7215 54.444H95.0015C94.9295 54.444 94.8815 54.492 94.8815 54.564V62.88C94.8815 62.952 94.9295 63 95.0015 63H95.7215C95.7935 63 95.8415 62.952 95.8415 62.88V59.484C95.8415 59.412 95.8895 59.364 95.9615 59.364H100.305C100.377 59.364 100.425 59.412 100.425 59.484V62.88C100.425 62.952 100.473 63 100.545 63H101.265C101.337 63 101.385 62.952 101.385 62.88V54.564C101.385 54.492 101.337 54.444 101.265 54.444H100.545C100.473 54.444 100.425 54.492 100.425 54.564ZM109.978 62.124H106.234C106.162 62.124 106.114 62.076 106.114 62.004V59.388C106.114 59.316 106.162 59.268 106.234 59.268H108.838C108.91 59.268 108.958 59.22 108.958 59.148V58.512C108.958 58.44 108.91 58.392 108.838 58.392H106.234C106.162 58.392 106.114 58.344 106.114 58.272V55.44C106.114 55.368 106.162 55.32 106.234 55.32H109.858C109.93 55.32 109.978 55.272 109.978 55.2V54.564C109.978 54.492 109.93 54.444 109.858 54.444H105.274C105.202 54.444 105.154 54.492 105.154 54.564V62.88C105.154 62.952 105.202 63 105.274 63H109.978C110.05 63 110.098 62.952 110.098 62.88V62.244C110.098 62.172 110.05 62.124 109.978 62.124ZM113.663 63H114.383C114.455 63 114.503 62.952 114.503 62.88V60.192C114.503 60.12 114.551 60.072 114.623 60.072H117.071C117.131 60.072 117.179 60.096 117.215 60.156L118.619 62.916C118.655 62.976 118.703 63 118.763 63H119.555C119.639 63 119.687 62.94 119.639 62.856L118.127 59.94C118.091 59.88 118.103 59.796 118.163 59.772C118.943 59.364 119.711 58.584 119.711 57.252C119.711 55.512 118.475 54.444 116.759 54.444H113.663C113.591 54.444 113.543 54.492 113.543 54.564V62.88C113.543 62.952 113.591 63 113.663 63ZM114.623 59.184C114.551 59.184 114.503 59.136 114.503 59.064V55.44C114.503 55.368 114.551 55.32 114.623 55.32H116.675C117.779 55.32 118.751 55.872 118.751 57.252C118.751 58.608 117.623 59.184 116.915 59.184H114.623Z" fill="white"/>
<path d="M176.884 59.616V58.98C176.884 58.908 176.836 58.86 176.764 58.86H167.404C167.332 58.86 167.284 58.908 167.284 58.98V59.616C167.284 59.688 167.332 59.736 167.404 59.736H176.764C176.836 59.736 176.884 59.688 176.884 59.616Z" fill="white"/>
<path d="M229.752 60.696C229.56 61.188 228.624 62.16 227.256 62.16C225.36 62.16 224.124 60.648 224.124 58.704C224.124 56.772 225.36 55.284 227.256 55.284C228.624 55.284 229.56 56.244 229.752 56.736C229.788 56.82 229.848 56.796 229.92 56.784L230.604 56.688C230.7 56.676 230.664 56.604 230.652 56.544C230.28 55.464 228.924 54.396 227.28 54.396C224.712 54.396 223.164 56.436 223.164 58.704C223.164 60.984 224.712 63.036 227.28 63.036C228.924 63.036 230.292 61.98 230.652 60.9C230.664 60.84 230.676 60.756 230.604 60.744L229.92 60.648C229.86 60.636 229.788 60.612 229.752 60.696ZM235.369 62.88V54.564C235.369 54.492 235.321 54.444 235.249 54.444H234.529C234.457 54.444 234.409 54.492 234.409 54.564V62.88C234.409 62.952 234.457 63 234.529 63H235.249C235.321 63 235.369 62.952 235.369 62.88ZM245.852 62.88V54.564C245.852 54.492 245.804 54.444 245.732 54.444H245.012C244.94 54.444 244.892 54.492 244.892 54.564V60.96C244.892 61.068 244.832 61.128 244.748 61.02L239.936 54.516C239.9 54.468 239.852 54.444 239.792 54.444H239.288C239.216 54.444 239.168 54.492 239.168 54.564V62.88C239.168 62.952 239.216 63 239.288 63H240.008C240.08 63 240.128 62.952 240.128 62.88V56.484C240.128 56.376 240.188 56.316 240.272 56.424L245.072 62.928C245.108 62.976 245.156 63 245.216 63H245.732C245.804 63 245.852 62.952 245.852 62.88ZM254.441 62.124H250.697C250.625 62.124 250.577 62.076 250.577 62.004V59.388C250.577 59.316 250.625 59.268 250.697 59.268H253.301C253.373 59.268 253.421 59.22 253.421 59.148V58.512C253.421 58.44 253.373 58.392 253.301 58.392H250.697C250.625 58.392 250.577 58.344 250.577 58.272V55.44C250.577 55.368 250.625 55.32 250.697 55.32H254.321C254.393 55.32 254.441 55.272 254.441 55.2V54.564C254.441 54.492 254.393 54.444 254.321 54.444H249.737C249.665 54.444 249.617 54.492 249.617 54.564V62.88C249.617 62.952 249.665 63 249.737 63H254.441C254.513 63 254.561 62.952 254.561 62.88V62.244C254.561 62.172 254.513 62.124 254.441 62.124ZM265.741 54.516L262.489 59.952C262.453 60.024 262.369 60.024 262.321 59.952L259.069 54.516C259.033 54.456 258.973 54.444 258.913 54.444H258.421C258.349 54.444 258.301 54.492 258.301 54.564V62.88C258.301 62.952 258.349 63 258.421 63H259.141C259.213 63 259.261 62.952 259.261 62.88V56.76C259.261 56.652 259.345 56.628 259.405 56.712L262.321 61.572C262.369 61.644 262.441 61.644 262.489 61.572L265.417 56.7C265.477 56.616 265.561 56.652 265.561 56.76V62.88C265.561 62.952 265.609 63 265.681 63H266.401C266.473 63 266.521 62.952 266.521 62.88V54.564C266.521 54.492 266.473 54.444 266.401 54.444H265.897C265.837 54.444 265.777 54.456 265.741 54.516ZM273.385 54.528L269.857 62.856C269.821 62.94 269.857 63 269.941 63H270.649C270.709 63 270.757 62.976 270.781 62.916L271.537 61.14C271.561 61.08 271.621 61.056 271.681 61.056H275.797C275.857 61.056 275.905 61.08 275.929 61.14L276.685 62.916C276.709 62.976 276.769 63 276.829 63H277.537C277.621 63 277.657 62.94 277.621 62.856L274.093 54.528C274.069 54.468 274.009 54.444 273.949 54.444H273.529C273.469 54.444 273.409 54.468 273.385 54.528ZM272.005 60.024L273.661 56.076C273.697 55.992 273.793 55.992 273.829 56.076L275.473 60.024C275.509 60.108 275.473 60.168 275.389 60.168H272.089C272.005 60.168 271.969 60.108 272.005 60.024ZM284.765 54.444H279.305C279.233 54.444 279.185 54.492 279.185 54.564V55.2C279.185 55.272 279.233 55.32 279.305 55.32H281.441C281.513 55.32 281.561 55.368 281.561 55.44V62.88C281.561 62.952 281.609 63 281.681 63H282.401C282.473 63 282.521 62.952 282.521 62.88V55.44C282.521 55.368 282.569 55.32 282.641 55.32H284.765C284.837 55.32 284.885 55.272 284.885 55.2V54.564C284.885 54.492 284.837 54.444 284.765 54.444ZM291.674 54.408C289.202 54.408 287.522 56.244 287.522 58.716C287.522 61.188 289.202 63.036 291.674 63.036C294.146 63.036 295.826 61.188 295.826 58.716C295.826 56.244 294.146 54.408 291.674 54.408ZM291.674 55.284C293.546 55.284 294.866 56.664 294.866 58.716C294.866 60.78 293.546 62.16 291.674 62.16C289.802 62.16 288.482 60.78 288.482 58.716C288.482 56.664 289.802 55.284 291.674 55.284ZM307.144 58.368H303.46C303.388 58.368 303.34 58.416 303.34 58.488V59.016C303.34 59.088 303.388 59.136 303.46 59.136H306.196C306.268 59.136 306.304 59.184 306.304 59.256C306.304 60.444 305.368 62.16 303.136 62.16C301.084 62.16 299.836 60.492 299.836 58.716C299.836 56.952 301.156 55.284 303.196 55.284C304.552 55.284 305.476 56.148 305.872 56.82C305.92 56.892 305.98 56.88 306.052 56.856L306.724 56.736C306.796 56.712 306.772 56.652 306.736 56.58C306.196 55.404 304.804 54.408 303.148 54.408C300.76 54.408 298.876 56.34 298.876 58.716C298.876 61.104 300.724 63.036 303.1 63.036C305.692 63.036 307.264 61.116 307.264 58.716V58.488C307.264 58.416 307.216 58.368 307.144 58.368ZM310.628 63H311.348C311.42 63 311.468 62.952 311.468 62.88V60.192C311.468 60.12 311.516 60.072 311.588 60.072H314.036C314.096 60.072 314.144 60.096 314.18 60.156L315.584 62.916C315.62 62.976 315.668 63 315.728 63H316.52C316.604 63 316.652 62.94 316.604 62.856L315.092 59.94C315.056 59.88 315.068 59.796 315.128 59.772C315.908 59.364 316.676 58.584 316.676 57.252C316.676 55.512 315.44 54.444 313.724 54.444H310.628C310.556 54.444 310.508 54.492 310.508 54.564V62.88C310.508 62.952 310.556 63 310.628 63ZM311.588 59.184C311.516 59.184 311.468 59.136 311.468 59.064V55.44C311.468 55.368 311.516 55.32 311.588 55.32H313.64C314.744 55.32 315.716 55.872 315.716 57.252C315.716 58.608 314.588 59.184 313.88 59.184H311.588ZM323.134 54.528L319.606 62.856C319.57 62.94 319.606 63 319.69 63H320.398C320.458 63 320.506 62.976 320.53 62.916L321.286 61.14C321.31 61.08 321.37 61.056 321.43 61.056H325.546C325.606 61.056 325.654 61.08 325.678 61.14L326.434 62.916C326.458 62.976 326.518 63 326.578 63H327.286C327.37 63 327.406 62.94 327.37 62.856L323.842 54.528C323.818 54.468 323.758 54.444 323.698 54.444H323.278C323.218 54.444 323.158 54.468 323.134 54.528ZM321.754 60.024L323.41 56.076C323.446 55.992 323.542 55.992 323.578 56.076L325.222 60.024C325.258 60.108 325.222 60.168 325.138 60.168H321.838C321.754 60.168 321.718 60.108 321.754 60.024ZM330.909 63H331.629C331.701 63 331.749 62.952 331.749 62.88V60.624C331.749 60.552 331.797 60.504 331.869 60.504H333.849C335.781 60.504 337.173 59.4 337.173 57.48C337.173 55.56 335.781 54.444 333.849 54.444H330.909C330.837 54.444 330.789 54.492 330.789 54.564V62.88C330.789 62.952 330.837 63 330.909 63ZM331.869 59.628C331.797 59.628 331.749 59.58 331.749 59.508V55.44C331.749 55.368 331.797 55.32 331.869 55.32H333.729C334.905 55.32 336.213 55.752 336.213 57.48C336.213 59.208 334.917 59.628 333.729 59.628H331.869ZM346.002 54.564V58.368C346.002 58.44 345.954 58.488 345.882 58.488H341.538C341.466 58.488 341.418 58.44 341.418 58.368V54.564C341.418 54.492 341.37 54.444 341.298 54.444H340.578C340.506 54.444 340.458 54.492 340.458 54.564V62.88C340.458 62.952 340.506 63 340.578 63H341.298C341.37 63 341.418 62.952 341.418 62.88V59.484C341.418 59.412 341.466 59.364 341.538 59.364H345.882C345.954 59.364 346.002 59.412 346.002 59.484V62.88C346.002 62.952 346.05 63 346.122 63H346.842C346.914 63 346.962 62.952 346.962 62.88V54.564C346.962 54.492 346.914 54.444 346.842 54.444H346.122C346.05 54.444 346.002 54.492 346.002 54.564ZM355.555 62.124H351.811C351.739 62.124 351.691 62.076 351.691 62.004V59.388C351.691 59.316 351.739 59.268 351.811 59.268H354.415C354.487 59.268 354.535 59.22 354.535 59.148V58.512C354.535 58.44 354.487 58.392 354.415 58.392H351.811C351.739 58.392 351.691 58.344 351.691 58.272V55.44C351.691 55.368 351.739 55.32 351.811 55.32H355.435C355.507 55.32 355.555 55.272 355.555 55.2V54.564C355.555 54.492 355.507 54.444 355.435 54.444H350.851C350.779 54.444 350.731 54.492 350.731 54.564V62.88C350.731 62.952 350.779 63 350.851 63H355.555C355.627 63 355.675 62.952 355.675 62.88V62.244C355.675 62.172 355.627 62.124 355.555 62.124ZM359.239 63H359.959C360.031 63 360.079 62.952 360.079 62.88V60.192C360.079 60.12 360.127 60.072 360.199 60.072H362.647C362.707 60.072 362.755 60.096 362.791 60.156L364.195 62.916C364.231 62.976 364.279 63 364.339 63H365.131C365.215 63 365.263 62.94 365.215 62.856L363.703 59.94C363.667 59.88 363.679 59.796 363.739 59.772C364.519 59.364 365.287 58.584 365.287 57.252C365.287 55.512 364.051 54.444 362.335 54.444H359.239C359.167 54.444 359.119 54.492 359.119 54.564V62.88C359.119 62.952 359.167 63 359.239 63ZM360.199 59.184C360.127 59.184 360.079 59.136 360.079 59.064V55.44C360.079 55.368 360.127 55.32 360.199 55.32H362.251C363.355 55.32 364.327 55.872 364.327 57.252C364.327 58.608 363.199 59.184 362.491 59.184H360.199Z" fill="white"/>
</svg>
