<svg width="369" height="56" viewBox="0 0 369 56" fill="none" xmlns="http://www.w3.org/2000/svg">
<g clip-path="url(#clip0)">
<path d="M3.395 26H5.495C5.705 26 5.845 25.86 5.845 25.65V19.07C5.845 18.86 5.985 18.72 6.195 18.72H11.97C17.605 18.72 21.665 15.5 21.665 9.9C21.665 4.3 17.605 1.045 11.97 1.045H3.395C3.185 1.045 3.045 1.185 3.045 1.395V25.65C3.045 25.86 3.185 26 3.395 26ZM6.195 16.165C5.985 16.165 5.845 16.025 5.845 15.815V3.95C5.845 3.74 5.985 3.6 6.195 3.6H11.62C15.05 3.6 18.865 4.86 18.865 9.9C18.865 14.94 15.085 16.165 11.62 16.165H6.195ZM40.997 23.445H30.077C29.867 23.445 29.727 23.305 29.727 23.095V15.465C29.727 15.255 29.867 15.115 30.077 15.115H37.672C37.882 15.115 38.022 14.975 38.022 14.765V12.91C38.022 12.7 37.882 12.56 37.672 12.56H30.077C29.867 12.56 29.727 12.42 29.727 12.21V3.95C29.727 3.74 29.867 3.6 30.077 3.6H40.647C40.857 3.6 40.997 3.46 40.997 3.25V1.395C40.997 1.185 40.857 1.045 40.647 1.045H27.277C27.067 1.045 26.927 1.185 26.927 1.395V25.65C26.927 25.86 27.067 26 27.277 26H40.997C41.207 26 41.347 25.86 41.347 25.65V23.795C41.347 23.585 41.207 23.445 40.997 23.445ZM69.682 13.54C69.682 6.4 63.907 1.045 56.697 1.045H48.262C48.052 1.045 47.912 1.185 47.912 1.395V25.65C47.912 25.86 48.052 26 48.262 26H56.697C63.907 26 69.682 20.645 69.682 13.54ZM66.882 13.54C66.882 18.405 63.102 23.445 56.837 23.445H51.062C50.852 23.445 50.712 23.305 50.712 23.095V3.95C50.712 3.74 50.852 3.6 51.062 3.6H56.837C63.102 3.6 66.882 8.675 66.882 13.54ZM75.4513 26H77.5513C77.7613 26 77.9013 25.86 77.9013 25.65V17.81C77.9013 17.6 78.0413 17.46 78.2513 17.46H85.3913C85.5663 17.46 85.7063 17.53 85.8113 17.705L89.9063 25.755C90.0113 25.93 90.1513 26 90.3263 26H92.6363C92.8813 26 93.0213 25.825 92.8813 25.58L88.4713 17.075C88.3663 16.9 88.4013 16.655 88.5763 16.585C90.8513 15.395 93.0913 13.12 93.0913 9.235C93.0913 4.16 89.4863 1.045 84.4813 1.045H75.4513C75.2413 1.045 75.1013 1.185 75.1013 1.395V25.65C75.1013 25.86 75.2413 26 75.4513 26ZM78.2513 14.87C78.0413 14.87 77.9013 14.73 77.9013 14.52V3.95C77.9013 3.74 78.0413 3.6 78.2513 3.6H84.2363C87.4563 3.6 90.2913 5.21 90.2913 9.235C90.2913 13.19 87.0013 14.87 84.9363 14.87H78.2513ZM109.256 0.939999C102.046 0.939999 97.1458 6.295 97.1458 13.505C97.1458 20.715 102.046 26.105 109.256 26.105C116.466 26.105 121.366 20.715 121.366 13.505C121.366 6.295 116.466 0.939999 109.256 0.939999ZM109.256 3.495C114.716 3.495 118.566 7.52 118.566 13.505C118.566 19.525 114.716 23.55 109.256 23.55C103.796 23.55 99.9458 19.525 99.9458 13.505C99.9458 7.52 103.796 3.495 109.256 3.495ZM154.269 1.395V16.9C154.269 20.715 153.639 23.55 149.614 23.55C146.744 23.55 145.554 21.135 145.274 19.63C145.239 19.385 145.169 19.245 144.924 19.28L142.859 19.56C142.649 19.595 142.439 19.665 142.509 19.91C143.139 22.85 145.204 26.105 149.614 26.105C156.194 26.105 157.034 21.31 157.034 16.97V1.395C157.034 1.185 156.929 1.045 156.719 1.045H154.619C154.409 1.045 154.269 1.185 154.269 1.395ZM162.338 26.105C163.283 26.105 164.088 25.3 164.088 24.355C164.088 23.41 163.283 22.605 162.338 22.605C161.393 22.605 160.588 23.41 160.588 24.355C160.588 25.3 161.393 26.105 162.338 26.105ZM208.691 1.255L199.206 17.11C199.101 17.32 198.856 17.32 198.716 17.11L189.231 1.255C189.126 1.08 188.951 1.045 188.776 1.045H187.341C187.131 1.045 186.991 1.185 186.991 1.395V25.65C186.991 25.86 187.131 26 187.341 26H189.441C189.651 26 189.791 25.86 189.791 25.65V7.8C189.791 7.485 190.036 7.415 190.211 7.66L198.716 21.835C198.856 22.045 199.066 22.045 199.206 21.835L207.746 7.625C207.921 7.38 208.166 7.485 208.166 7.8V25.65C208.166 25.86 208.306 26 208.516 26H210.616C210.826 26 210.966 25.86 210.966 25.65V1.395C210.966 1.185 210.826 1.045 210.616 1.045H209.146C208.971 1.045 208.796 1.08 208.691 1.255ZM230.287 -6.62L227.067 -1.825C226.892 -1.615 227.102 -1.405 227.347 -1.405H228.817C228.992 -1.405 229.132 -1.44 229.237 -1.615L232.772 -6.445C232.947 -6.655 232.842 -6.865 232.562 -6.865H230.707C230.532 -6.865 230.357 -6.795 230.287 -6.62ZM226.437 1.29L216.147 25.58C216.042 25.825 216.147 26 216.392 26H218.457C218.632 26 218.772 25.93 218.842 25.755L221.047 20.575C221.117 20.4 221.292 20.33 221.467 20.33H233.472C233.647 20.33 233.787 20.4 233.857 20.575L236.062 25.755C236.132 25.93 236.307 26 236.482 26H238.547C238.792 26 238.897 25.825 238.792 25.58L228.502 1.29C228.432 1.115 228.257 1.045 228.082 1.045H226.857C226.682 1.045 226.507 1.115 226.437 1.29ZM222.412 17.32L227.242 5.805C227.347 5.56 227.627 5.56 227.732 5.805L232.527 17.32C232.632 17.565 232.527 17.74 232.282 17.74H222.657C222.412 17.74 222.307 17.565 222.412 17.32ZM243.846 26H245.946C246.156 26 246.296 25.86 246.296 25.65V17.81C246.296 17.6 246.436 17.46 246.646 17.46H253.786C253.961 17.46 254.101 17.53 254.206 17.705L258.301 25.755C258.406 25.93 258.546 26 258.721 26H261.031C261.276 26 261.416 25.825 261.276 25.58L256.866 17.075C256.761 16.9 256.796 16.655 256.971 16.585C259.246 15.395 261.486 13.12 261.486 9.235C261.486 4.16 257.881 1.045 252.876 1.045H243.846C243.636 1.045 243.496 1.185 243.496 1.395V25.65C243.496 25.86 243.636 26 243.846 26ZM246.646 14.87C246.436 14.87 246.296 14.73 246.296 14.52V3.95C246.296 3.74 246.436 3.6 246.646 3.6H252.631C255.851 3.6 258.686 5.21 258.686 9.235C258.686 13.19 255.396 14.87 253.331 14.87H246.646ZM292.951 24.775L289.801 21.695C291.516 19.525 292.461 16.69 292.461 13.505C292.461 6.295 287.561 0.939999 280.351 0.939999C273.141 0.939999 268.241 6.295 268.241 13.505C268.241 20.715 273.141 26.105 280.351 26.105C283.396 26.105 285.986 25.16 288.016 23.515L291.201 26.63C291.341 26.805 291.551 26.77 291.726 26.63L292.986 25.265C293.126 25.125 293.126 24.95 292.951 24.775ZM280.351 23.55C274.891 23.55 271.041 19.525 271.041 13.505C271.041 7.52 274.891 3.495 280.351 3.495C285.811 3.495 289.661 7.52 289.661 13.505C289.661 15.99 288.996 18.125 287.841 19.805L285.041 17.075C284.901 16.935 284.691 16.935 284.551 17.075L283.291 18.44C283.116 18.58 283.116 18.755 283.291 18.93L286.091 21.66C284.551 22.85 282.591 23.55 280.351 23.55ZM315.33 1.395V15.255C315.295 20.82 312.74 23.55 308.015 23.55C303.22 23.55 300.665 20.785 300.665 15.255V1.395C300.665 1.185 300.525 1.045 300.315 1.045H298.215C298.005 1.045 297.865 1.185 297.865 1.395V15.255C297.865 19.945 299.58 26.105 308.015 26.105C316.415 26.105 318.13 19.945 318.13 15.255V1.395C318.13 1.185 317.99 1.045 317.78 1.045H315.68C315.47 1.045 315.33 1.185 315.33 1.395ZM338.646 23.445H327.726C327.516 23.445 327.376 23.305 327.376 23.095V15.465C327.376 15.255 327.516 15.115 327.726 15.115H335.321C335.531 15.115 335.671 14.975 335.671 14.765V12.91C335.671 12.7 335.531 12.56 335.321 12.56H327.726C327.516 12.56 327.376 12.42 327.376 12.21V3.95C327.376 3.74 327.516 3.6 327.726 3.6H338.296C338.506 3.6 338.646 3.46 338.646 3.25V1.395C338.646 1.185 338.506 1.045 338.296 1.045H324.926C324.716 1.045 324.576 1.185 324.576 1.395V25.65C324.576 25.86 324.716 26 324.926 26H338.646C338.856 26 338.996 25.86 338.996 25.65V23.795C338.996 23.585 338.856 23.445 338.646 23.445ZM365.47 1.045H346.15C345.94 1.045 345.8 1.185 345.8 1.395V3.25C345.8 3.46 345.94 3.6 346.15 3.6H361.585C361.865 3.6 361.97 3.845 361.795 4.055L345.94 23.69C345.835 23.83 345.8 23.97 345.8 24.145V25.65C345.8 25.86 345.94 26 346.15 26H365.47C365.68 26 365.82 25.895 365.82 25.65V23.795C365.82 23.585 365.68 23.445 365.47 23.445H350C349.72 23.445 349.615 23.2 349.79 22.99L365.68 3.32C365.785 3.18 365.82 3.075 365.82 2.9V1.395C365.82 1.185 365.68 1.045 365.47 1.045Z" fill="white"/>
<path d="M3.164 54H3.884C3.956 54 4.004 53.952 4.004 53.88V51.624C4.004 51.552 4.052 51.504 4.124 51.504H6.104C8.036 51.504 9.428 50.4 9.428 48.48C9.428 46.56 8.036 45.444 6.104 45.444H3.164C3.092 45.444 3.044 45.492 3.044 45.564V53.88C3.044 53.952 3.092 54 3.164 54ZM4.124 50.628C4.052 50.628 4.004 50.58 4.004 50.508V46.44C4.004 46.368 4.052 46.32 4.124 46.32H5.984C7.16 46.32 8.468 46.752 8.468 48.48C8.468 50.208 7.172 50.628 5.984 50.628H4.124ZM18.2569 45.564V49.368C18.2569 49.44 18.2089 49.488 18.1369 49.488H13.7929C13.7209 49.488 13.6729 49.44 13.6729 49.368V45.564C13.6729 45.492 13.6249 45.444 13.5529 45.444H12.8329C12.7609 45.444 12.7129 45.492 12.7129 45.564V53.88C12.7129 53.952 12.7609 54 12.8329 54H13.5529C13.6249 54 13.6729 53.952 13.6729 53.88V50.484C13.6729 50.412 13.7209 50.364 13.7929 50.364H18.1369C18.2089 50.364 18.2569 50.412 18.2569 50.484V53.88C18.2569 53.952 18.3049 54 18.3769 54H19.0969C19.1689 54 19.2169 53.952 19.2169 53.88V45.564C19.2169 45.492 19.1689 45.444 19.0969 45.444H18.3769C18.3049 45.444 18.2569 45.492 18.2569 45.564ZM26.9294 45.408C24.4574 45.408 22.7774 47.244 22.7774 49.716C22.7774 52.188 24.4574 54.036 26.9294 54.036C29.4014 54.036 31.0814 52.188 31.0814 49.716C31.0814 47.244 29.4014 45.408 26.9294 45.408ZM26.9294 46.284C28.8014 46.284 30.1214 47.664 30.1214 49.716C30.1214 51.78 28.8014 53.16 26.9294 53.16C25.0574 53.16 23.7374 51.78 23.7374 49.716C23.7374 47.664 25.0574 46.284 26.9294 46.284ZM39.1887 45.444H33.7287C33.6567 45.444 33.6087 45.492 33.6087 45.564V46.2C33.6087 46.272 33.6567 46.32 33.7287 46.32H35.8647C35.9367 46.32 35.9847 46.368 35.9847 46.44V53.88C35.9847 53.952 36.0327 54 36.1047 54H36.8247C36.8967 54 36.9447 53.952 36.9447 53.88V46.44C36.9447 46.368 36.9927 46.32 37.0647 46.32H39.1887C39.2607 46.32 39.3087 46.272 39.3087 46.2V45.564C39.3087 45.492 39.2607 45.444 39.1887 45.444ZM46.0976 45.408C43.6256 45.408 41.9456 47.244 41.9456 49.716C41.9456 52.188 43.6256 54.036 46.0976 54.036C48.5696 54.036 50.2496 52.188 50.2496 49.716C50.2496 47.244 48.5696 45.408 46.0976 45.408ZM46.0976 46.284C47.9696 46.284 49.2896 47.664 49.2896 49.716C49.2896 51.78 47.9696 53.16 46.0976 53.16C44.2256 53.16 42.9056 51.78 42.9056 49.716C42.9056 47.664 44.2256 46.284 46.0976 46.284ZM61.5672 49.368H57.8832C57.8112 49.368 57.7632 49.416 57.7632 49.488V50.016C57.7632 50.088 57.8112 50.136 57.8832 50.136H60.6192C60.6912 50.136 60.7272 50.184 60.7272 50.256C60.7272 51.444 59.7912 53.16 57.5592 53.16C55.5072 53.16 54.2592 51.492 54.2592 49.716C54.2592 47.952 55.5792 46.284 57.6192 46.284C58.9752 46.284 59.8992 47.148 60.2952 47.82C60.3432 47.892 60.4032 47.88 60.4752 47.856L61.1472 47.736C61.2192 47.712 61.1952 47.652 61.1592 47.58C60.6192 46.404 59.2272 45.408 57.5712 45.408C55.1832 45.408 53.2992 47.34 53.2992 49.716C53.2992 52.104 55.1472 54.036 57.5232 54.036C60.1152 54.036 61.6872 52.116 61.6872 49.716V49.488C61.6872 49.416 61.6392 49.368 61.5672 49.368ZM65.0512 54H65.7712C65.8432 54 65.8912 53.952 65.8912 53.88V51.192C65.8912 51.12 65.9392 51.072 66.0112 51.072H68.4592C68.5192 51.072 68.5672 51.096 68.6032 51.156L70.0072 53.916C70.0432 53.976 70.0912 54 70.1512 54H70.9432C71.0272 54 71.0752 53.94 71.0272 53.856L69.5152 50.94C69.4792 50.88 69.4912 50.796 69.5512 50.772C70.3312 50.364 71.0992 49.584 71.0992 48.252C71.0992 46.512 69.8632 45.444 68.1472 45.444H65.0512C64.9792 45.444 64.9312 45.492 64.9312 45.564V53.88C64.9312 53.952 64.9792 54 65.0512 54ZM66.0112 50.184C65.9392 50.184 65.8912 50.136 65.8912 50.064V46.44C65.8912 46.368 65.9392 46.32 66.0112 46.32H68.0632C69.1672 46.32 70.1392 46.872 70.1392 48.252C70.1392 49.608 69.0112 50.184 68.3032 50.184H66.0112ZM77.5574 45.528L74.0294 53.856C73.9934 53.94 74.0294 54 74.1134 54H74.8214C74.8814 54 74.9294 53.976 74.9534 53.916L75.7094 52.14C75.7334 52.08 75.7934 52.056 75.8534 52.056H79.9694C80.0294 52.056 80.0774 52.08 80.1014 52.14L80.8574 53.916C80.8814 53.976 80.9414 54 81.0014 54H81.7094C81.7934 54 81.8294 53.94 81.7934 53.856L78.2654 45.528C78.2414 45.468 78.1814 45.444 78.1214 45.444H77.7014C77.6414 45.444 77.5814 45.468 77.5574 45.528ZM76.1774 51.024L77.8334 47.076C77.8694 46.992 77.9654 46.992 78.0014 47.076L79.6454 51.024C79.6814 51.108 79.6454 51.168 79.5614 51.168H76.2614C76.1774 51.168 76.1414 51.108 76.1774 51.024ZM85.3326 54H86.0526C86.1246 54 86.1726 53.952 86.1726 53.88V51.624C86.1726 51.552 86.2206 51.504 86.2926 51.504H88.2726C90.2046 51.504 91.5966 50.4 91.5966 48.48C91.5966 46.56 90.2046 45.444 88.2726 45.444H85.3326C85.2606 45.444 85.2126 45.492 85.2126 45.564V53.88C85.2126 53.952 85.2606 54 85.3326 54ZM86.2926 50.628C86.2206 50.628 86.1726 50.58 86.1726 50.508V46.44C86.1726 46.368 86.2206 46.32 86.2926 46.32H88.1526C89.3286 46.32 90.6366 46.752 90.6366 48.48C90.6366 50.208 89.3406 50.628 88.1526 50.628H86.2926ZM100.425 45.564V49.368C100.425 49.44 100.377 49.488 100.305 49.488H95.9615C95.8895 49.488 95.8415 49.44 95.8415 49.368V45.564C95.8415 45.492 95.7935 45.444 95.7215 45.444H95.0015C94.9295 45.444 94.8815 45.492 94.8815 45.564V53.88C94.8815 53.952 94.9295 54 95.0015 54H95.7215C95.7935 54 95.8415 53.952 95.8415 53.88V50.484C95.8415 50.412 95.8895 50.364 95.9615 50.364H100.305C100.377 50.364 100.425 50.412 100.425 50.484V53.88C100.425 53.952 100.473 54 100.545 54H101.265C101.337 54 101.385 53.952 101.385 53.88V45.564C101.385 45.492 101.337 45.444 101.265 45.444H100.545C100.473 45.444 100.425 45.492 100.425 45.564ZM109.978 53.124H106.234C106.162 53.124 106.114 53.076 106.114 53.004V50.388C106.114 50.316 106.162 50.268 106.234 50.268H108.838C108.91 50.268 108.958 50.22 108.958 50.148V49.512C108.958 49.44 108.91 49.392 108.838 49.392H106.234C106.162 49.392 106.114 49.344 106.114 49.272V46.44C106.114 46.368 106.162 46.32 106.234 46.32H109.858C109.93 46.32 109.978 46.272 109.978 46.2V45.564C109.978 45.492 109.93 45.444 109.858 45.444H105.274C105.202 45.444 105.154 45.492 105.154 45.564V53.88C105.154 53.952 105.202 54 105.274 54H109.978C110.05 54 110.098 53.952 110.098 53.88V53.244C110.098 53.172 110.05 53.124 109.978 53.124ZM113.663 54H114.383C114.455 54 114.503 53.952 114.503 53.88V51.192C114.503 51.12 114.551 51.072 114.623 51.072H117.071C117.131 51.072 117.179 51.096 117.215 51.156L118.619 53.916C118.655 53.976 118.703 54 118.763 54H119.555C119.639 54 119.687 53.94 119.639 53.856L118.127 50.94C118.091 50.88 118.103 50.796 118.163 50.772C118.943 50.364 119.711 49.584 119.711 48.252C119.711 46.512 118.475 45.444 116.759 45.444H113.663C113.591 45.444 113.543 45.492 113.543 45.564V53.88C113.543 53.952 113.591 54 113.663 54ZM114.623 50.184C114.551 50.184 114.503 50.136 114.503 50.064V46.44C114.503 46.368 114.551 46.32 114.623 46.32H116.675C117.779 46.32 118.751 46.872 118.751 48.252C118.751 49.608 117.623 50.184 116.915 50.184H114.623Z" fill="white"/>
<path d="M190.884 50.616V49.98C190.884 49.908 190.836 49.86 190.764 49.86H181.404C181.332 49.86 181.284 49.908 181.284 49.98V50.616C181.284 50.688 181.332 50.736 181.404 50.736H190.764C190.836 50.736 190.884 50.688 190.884 50.616Z" fill="white"/>
<path d="M229.752 51.696C229.56 52.188 228.624 53.16 227.256 53.16C225.36 53.16 224.124 51.648 224.124 49.704C224.124 47.772 225.36 46.284 227.256 46.284C228.624 46.284 229.56 47.244 229.752 47.736C229.788 47.82 229.848 47.796 229.92 47.784L230.604 47.688C230.7 47.676 230.664 47.604 230.652 47.544C230.28 46.464 228.924 45.396 227.28 45.396C224.712 45.396 223.164 47.436 223.164 49.704C223.164 51.984 224.712 54.036 227.28 54.036C228.924 54.036 230.292 52.98 230.652 51.9C230.664 51.84 230.676 51.756 230.604 51.744L229.92 51.648C229.86 51.636 229.788 51.612 229.752 51.696ZM235.369 53.88V45.564C235.369 45.492 235.321 45.444 235.249 45.444H234.529C234.457 45.444 234.409 45.492 234.409 45.564V53.88C234.409 53.952 234.457 54 234.529 54H235.249C235.321 54 235.369 53.952 235.369 53.88ZM245.852 53.88V45.564C245.852 45.492 245.804 45.444 245.732 45.444H245.012C244.94 45.444 244.892 45.492 244.892 45.564V51.96C244.892 52.068 244.832 52.128 244.748 52.02L239.936 45.516C239.9 45.468 239.852 45.444 239.792 45.444H239.288C239.216 45.444 239.168 45.492 239.168 45.564V53.88C239.168 53.952 239.216 54 239.288 54H240.008C240.08 54 240.128 53.952 240.128 53.88V47.484C240.128 47.376 240.188 47.316 240.272 47.424L245.072 53.928C245.108 53.976 245.156 54 245.216 54H245.732C245.804 54 245.852 53.952 245.852 53.88ZM254.441 53.124H250.697C250.625 53.124 250.577 53.076 250.577 53.004V50.388C250.577 50.316 250.625 50.268 250.697 50.268H253.301C253.373 50.268 253.421 50.22 253.421 50.148V49.512C253.421 49.44 253.373 49.392 253.301 49.392H250.697C250.625 49.392 250.577 49.344 250.577 49.272V46.44C250.577 46.368 250.625 46.32 250.697 46.32H254.321C254.393 46.32 254.441 46.272 254.441 46.2V45.564C254.441 45.492 254.393 45.444 254.321 45.444H249.737C249.665 45.444 249.617 45.492 249.617 45.564V53.88C249.617 53.952 249.665 54 249.737 54H254.441C254.513 54 254.561 53.952 254.561 53.88V53.244C254.561 53.172 254.513 53.124 254.441 53.124ZM265.741 45.516L262.489 50.952C262.453 51.024 262.369 51.024 262.321 50.952L259.069 45.516C259.033 45.456 258.973 45.444 258.913 45.444H258.421C258.349 45.444 258.301 45.492 258.301 45.564V53.88C258.301 53.952 258.349 54 258.421 54H259.141C259.213 54 259.261 53.952 259.261 53.88V47.76C259.261 47.652 259.345 47.628 259.405 47.712L262.321 52.572C262.369 52.644 262.441 52.644 262.489 52.572L265.417 47.7C265.477 47.616 265.561 47.652 265.561 47.76V53.88C265.561 53.952 265.609 54 265.681 54H266.401C266.473 54 266.521 53.952 266.521 53.88V45.564C266.521 45.492 266.473 45.444 266.401 45.444H265.897C265.837 45.444 265.777 45.456 265.741 45.516ZM273.385 45.528L269.857 53.856C269.821 53.94 269.857 54 269.941 54H270.649C270.709 54 270.757 53.976 270.781 53.916L271.537 52.14C271.561 52.08 271.621 52.056 271.681 52.056H275.797C275.857 52.056 275.905 52.08 275.929 52.14L276.685 53.916C276.709 53.976 276.769 54 276.829 54H277.537C277.621 54 277.657 53.94 277.621 53.856L274.093 45.528C274.069 45.468 274.009 45.444 273.949 45.444H273.529C273.469 45.444 273.409 45.468 273.385 45.528ZM272.005 51.024L273.661 47.076C273.697 46.992 273.793 46.992 273.829 47.076L275.473 51.024C275.509 51.108 275.473 51.168 275.389 51.168H272.089C272.005 51.168 271.969 51.108 272.005 51.024ZM284.765 45.444H279.305C279.233 45.444 279.185 45.492 279.185 45.564V46.2C279.185 46.272 279.233 46.32 279.305 46.32H281.441C281.513 46.32 281.561 46.368 281.561 46.44V53.88C281.561 53.952 281.609 54 281.681 54H282.401C282.473 54 282.521 53.952 282.521 53.88V46.44C282.521 46.368 282.569 46.32 282.641 46.32H284.765C284.837 46.32 284.885 46.272 284.885 46.2V45.564C284.885 45.492 284.837 45.444 284.765 45.444ZM291.674 45.408C289.202 45.408 287.522 47.244 287.522 49.716C287.522 52.188 289.202 54.036 291.674 54.036C294.146 54.036 295.826 52.188 295.826 49.716C295.826 47.244 294.146 45.408 291.674 45.408ZM291.674 46.284C293.546 46.284 294.866 47.664 294.866 49.716C294.866 51.78 293.546 53.16 291.674 53.16C289.802 53.16 288.482 51.78 288.482 49.716C288.482 47.664 289.802 46.284 291.674 46.284ZM307.144 49.368H303.46C303.388 49.368 303.34 49.416 303.34 49.488V50.016C303.34 50.088 303.388 50.136 303.46 50.136H306.196C306.268 50.136 306.304 50.184 306.304 50.256C306.304 51.444 305.368 53.16 303.136 53.16C301.084 53.16 299.836 51.492 299.836 49.716C299.836 47.952 301.156 46.284 303.196 46.284C304.552 46.284 305.476 47.148 305.872 47.82C305.92 47.892 305.98 47.88 306.052 47.856L306.724 47.736C306.796 47.712 306.772 47.652 306.736 47.58C306.196 46.404 304.804 45.408 303.148 45.408C300.76 45.408 298.876 47.34 298.876 49.716C298.876 52.104 300.724 54.036 303.1 54.036C305.692 54.036 307.264 52.116 307.264 49.716V49.488C307.264 49.416 307.216 49.368 307.144 49.368ZM310.628 54H311.348C311.42 54 311.468 53.952 311.468 53.88V51.192C311.468 51.12 311.516 51.072 311.588 51.072H314.036C314.096 51.072 314.144 51.096 314.18 51.156L315.584 53.916C315.62 53.976 315.668 54 315.728 54H316.52C316.604 54 316.652 53.94 316.604 53.856L315.092 50.94C315.056 50.88 315.068 50.796 315.128 50.772C315.908 50.364 316.676 49.584 316.676 48.252C316.676 46.512 315.44 45.444 313.724 45.444H310.628C310.556 45.444 310.508 45.492 310.508 45.564V53.88C310.508 53.952 310.556 54 310.628 54ZM311.588 50.184C311.516 50.184 311.468 50.136 311.468 50.064V46.44C311.468 46.368 311.516 46.32 311.588 46.32H313.64C314.744 46.32 315.716 46.872 315.716 48.252C315.716 49.608 314.588 50.184 313.88 50.184H311.588ZM323.134 45.528L319.606 53.856C319.57 53.94 319.606 54 319.69 54H320.398C320.458 54 320.506 53.976 320.53 53.916L321.286 52.14C321.31 52.08 321.37 52.056 321.43 52.056H325.546C325.606 52.056 325.654 52.08 325.678 52.14L326.434 53.916C326.458 53.976 326.518 54 326.578 54H327.286C327.37 54 327.406 53.94 327.37 53.856L323.842 45.528C323.818 45.468 323.758 45.444 323.698 45.444H323.278C323.218 45.444 323.158 45.468 323.134 45.528ZM321.754 51.024L323.41 47.076C323.446 46.992 323.542 46.992 323.578 47.076L325.222 51.024C325.258 51.108 325.222 51.168 325.138 51.168H321.838C321.754 51.168 321.718 51.108 321.754 51.024ZM330.909 54H331.629C331.701 54 331.749 53.952 331.749 53.88V51.624C331.749 51.552 331.797 51.504 331.869 51.504H333.849C335.781 51.504 337.173 50.4 337.173 48.48C337.173 46.56 335.781 45.444 333.849 45.444H330.909C330.837 45.444 330.789 45.492 330.789 45.564V53.88C330.789 53.952 330.837 54 330.909 54ZM331.869 50.628C331.797 50.628 331.749 50.58 331.749 50.508V46.44C331.749 46.368 331.797 46.32 331.869 46.32H333.729C334.905 46.32 336.213 46.752 336.213 48.48C336.213 50.208 334.917 50.628 333.729 50.628H331.869ZM346.002 45.564V49.368C346.002 49.44 345.954 49.488 345.882 49.488H341.538C341.466 49.488 341.418 49.44 341.418 49.368V45.564C341.418 45.492 341.37 45.444 341.298 45.444H340.578C340.506 45.444 340.458 45.492 340.458 45.564V53.88C340.458 53.952 340.506 54 340.578 54H341.298C341.37 54 341.418 53.952 341.418 53.88V50.484C341.418 50.412 341.466 50.364 341.538 50.364H345.882C345.954 50.364 346.002 50.412 346.002 50.484V53.88C346.002 53.952 346.05 54 346.122 54H346.842C346.914 54 346.962 53.952 346.962 53.88V45.564C346.962 45.492 346.914 45.444 346.842 45.444H346.122C346.05 45.444 346.002 45.492 346.002 45.564ZM355.555 53.124H351.811C351.739 53.124 351.691 53.076 351.691 53.004V50.388C351.691 50.316 351.739 50.268 351.811 50.268H354.415C354.487 50.268 354.535 50.22 354.535 50.148V49.512C354.535 49.44 354.487 49.392 354.415 49.392H351.811C351.739 49.392 351.691 49.344 351.691 49.272V46.44C351.691 46.368 351.739 46.32 351.811 46.32H355.435C355.507 46.32 355.555 46.272 355.555 46.2V45.564C355.555 45.492 355.507 45.444 355.435 45.444H350.851C350.779 45.444 350.731 45.492 350.731 45.564V53.88C350.731 53.952 350.779 54 350.851 54H355.555C355.627 54 355.675 53.952 355.675 53.88V53.244C355.675 53.172 355.627 53.124 355.555 53.124ZM359.239 54H359.959C360.031 54 360.079 53.952 360.079 53.88V51.192C360.079 51.12 360.127 51.072 360.199 51.072H362.647C362.707 51.072 362.755 51.096 362.791 51.156L364.195 53.916C364.231 53.976 364.279 54 364.339 54H365.131C365.215 54 365.263 53.94 365.215 53.856L363.703 50.94C363.667 50.88 363.679 50.796 363.739 50.772C364.519 50.364 365.287 49.584 365.287 48.252C365.287 46.512 364.051 45.444 362.335 45.444H359.239C359.167 45.444 359.119 45.492 359.119 45.564V53.88C359.119 53.952 359.167 54 359.239 54ZM360.199 50.184C360.127 50.184 360.079 50.136 360.079 50.064V46.44C360.079 46.368 360.127 46.32 360.199 46.32H362.251C363.355 46.32 364.327 46.872 364.327 48.252C364.327 49.608 363.199 50.184 362.491 50.184H360.199Z" fill="white"/>
</g>
<defs>
<clipPath id="clip0">
<rect width="369" height="56" fill="white"/>
</clipPath>
</defs>
</svg>
