<svg width="369" height="42" viewBox="0 0 369 42" fill="none" xmlns="http://www.w3.org/2000/svg">
<path d="M3.395 35H5.495C5.705 35 5.845 34.86 5.845 34.65V28.07C5.845 27.86 5.985 27.72 6.195 27.72H11.97C17.605 27.72 21.665 24.5 21.665 18.9C21.665 13.3 17.605 10.045 11.97 10.045H3.395C3.185 10.045 3.045 10.185 3.045 10.395V34.65C3.045 34.86 3.185 35 3.395 35ZM6.195 25.165C5.985 25.165 5.845 25.025 5.845 24.815V12.95C5.845 12.74 5.985 12.6 6.195 12.6H11.62C15.05 12.6 18.865 13.86 18.865 18.9C18.865 23.94 15.085 25.165 11.62 25.165H6.195ZM40.997 32.445H30.077C29.867 32.445 29.727 32.305 29.727 32.095V24.465C29.727 24.255 29.867 24.115 30.077 24.115H37.672C37.882 24.115 38.022 23.975 38.022 23.765V21.91C38.022 21.7 37.882 21.56 37.672 21.56H30.077C29.867 21.56 29.727 21.42 29.727 21.21V12.95C29.727 12.74 29.867 12.6 30.077 12.6H40.647C40.857 12.6 40.997 12.46 40.997 12.25V10.395C40.997 10.185 40.857 10.045 40.647 10.045H27.277C27.067 10.045 26.927 10.185 26.927 10.395V34.65C26.927 34.86 27.067 35 27.277 35H40.997C41.207 35 41.347 34.86 41.347 34.65V32.795C41.347 32.585 41.207 32.445 40.997 32.445ZM69.682 22.54C69.682 15.4 63.907 10.045 56.697 10.045H48.262C48.052 10.045 47.912 10.185 47.912 10.395V34.65C47.912 34.86 48.052 35 48.262 35H56.697C63.907 35 69.682 29.645 69.682 22.54ZM66.882 22.54C66.882 27.405 63.102 32.445 56.837 32.445H51.062C50.852 32.445 50.712 32.305 50.712 32.095V12.95C50.712 12.74 50.852 12.6 51.062 12.6H56.837C63.102 12.6 66.882 17.675 66.882 22.54ZM75.4513 35H77.5513C77.7613 35 77.9013 34.86 77.9013 34.65V26.81C77.9013 26.6 78.0413 26.46 78.2513 26.46H85.3913C85.5663 26.46 85.7063 26.53 85.8113 26.705L89.9063 34.755C90.0113 34.93 90.1513 35 90.3263 35H92.6363C92.8813 35 93.0213 34.825 92.8813 34.58L88.4713 26.075C88.3663 25.9 88.4013 25.655 88.5763 25.585C90.8513 24.395 93.0913 22.12 93.0913 18.235C93.0913 13.16 89.4863 10.045 84.4813 10.045H75.4513C75.2413 10.045 75.1013 10.185 75.1013 10.395V34.65C75.1013 34.86 75.2413 35 75.4513 35ZM78.2513 23.87C78.0413 23.87 77.9013 23.73 77.9013 23.52V12.95C77.9013 12.74 78.0413 12.6 78.2513 12.6H84.2363C87.4563 12.6 90.2913 14.21 90.2913 18.235C90.2913 22.19 87.0013 23.87 84.9363 23.87H78.2513ZM109.256 9.94C102.046 9.94 97.1458 15.295 97.1458 22.505C97.1458 29.715 102.046 35.105 109.256 35.105C116.466 35.105 121.366 29.715 121.366 22.505C121.366 15.295 116.466 9.94 109.256 9.94ZM109.256 12.495C114.716 12.495 118.566 16.52 118.566 22.505C118.566 28.525 114.716 32.55 109.256 32.55C103.796 32.55 99.9458 28.525 99.9458 22.505C99.9458 16.52 103.796 12.495 109.256 12.495ZM154.269 10.395V25.9C154.269 29.715 153.639 32.55 149.614 32.55C146.744 32.55 145.554 30.135 145.274 28.63C145.239 28.385 145.169 28.245 144.924 28.28L142.859 28.56C142.649 28.595 142.439 28.665 142.509 28.91C143.139 31.85 145.204 35.105 149.614 35.105C156.194 35.105 157.034 30.31 157.034 25.97V10.395C157.034 10.185 156.929 10.045 156.719 10.045H154.619C154.409 10.045 154.269 10.185 154.269 10.395ZM162.338 35.105C163.283 35.105 164.088 34.3 164.088 33.355C164.088 32.41 163.283 31.605 162.338 31.605C161.393 31.605 160.588 32.41 160.588 33.355C160.588 34.3 161.393 35.105 162.338 35.105ZM208.691 10.255L199.206 26.11C199.101 26.32 198.856 26.32 198.716 26.11L189.231 10.255C189.126 10.08 188.951 10.045 188.776 10.045H187.341C187.131 10.045 186.991 10.185 186.991 10.395V34.65C186.991 34.86 187.131 35 187.341 35H189.441C189.651 35 189.791 34.86 189.791 34.65V16.8C189.791 16.485 190.036 16.415 190.211 16.66L198.716 30.835C198.856 31.045 199.066 31.045 199.206 30.835L207.746 16.625C207.921 16.38 208.166 16.485 208.166 16.8V34.65C208.166 34.86 208.306 35 208.516 35H210.616C210.826 35 210.966 34.86 210.966 34.65V10.395C210.966 10.185 210.826 10.045 210.616 10.045H209.146C208.971 10.045 208.796 10.08 208.691 10.255ZM230.287 2.38L227.067 7.175C226.892 7.385 227.102 7.595 227.347 7.595H228.817C228.992 7.595 229.132 7.56 229.237 7.385L232.772 2.555C232.947 2.345 232.842 2.135 232.562 2.135H230.707C230.532 2.135 230.357 2.205 230.287 2.38ZM226.437 10.29L216.147 34.58C216.042 34.825 216.147 35 216.392 35H218.457C218.632 35 218.772 34.93 218.842 34.755L221.047 29.575C221.117 29.4 221.292 29.33 221.467 29.33H233.472C233.647 29.33 233.787 29.4 233.857 29.575L236.062 34.755C236.132 34.93 236.307 35 236.482 35H238.547C238.792 35 238.897 34.825 238.792 34.58L228.502 10.29C228.432 10.115 228.257 10.045 228.082 10.045H226.857C226.682 10.045 226.507 10.115 226.437 10.29ZM222.412 26.32L227.242 14.805C227.347 14.56 227.627 14.56 227.732 14.805L232.527 26.32C232.632 26.565 232.527 26.74 232.282 26.74H222.657C222.412 26.74 222.307 26.565 222.412 26.32ZM243.846 35H245.946C246.156 35 246.296 34.86 246.296 34.65V26.81C246.296 26.6 246.436 26.46 246.646 26.46H253.786C253.961 26.46 254.101 26.53 254.206 26.705L258.301 34.755C258.406 34.93 258.546 35 258.721 35H261.031C261.276 35 261.416 34.825 261.276 34.58L256.866 26.075C256.761 25.9 256.796 25.655 256.971 25.585C259.246 24.395 261.486 22.12 261.486 18.235C261.486 13.16 257.881 10.045 252.876 10.045H243.846C243.636 10.045 243.496 10.185 243.496 10.395V34.65C243.496 34.86 243.636 35 243.846 35ZM246.646 23.87C246.436 23.87 246.296 23.73 246.296 23.52V12.95C246.296 12.74 246.436 12.6 246.646 12.6H252.631C255.851 12.6 258.686 14.21 258.686 18.235C258.686 22.19 255.396 23.87 253.331 23.87H246.646ZM292.951 33.775L289.801 30.695C291.516 28.525 292.461 25.69 292.461 22.505C292.461 15.295 287.561 9.94 280.351 9.94C273.141 9.94 268.241 15.295 268.241 22.505C268.241 29.715 273.141 35.105 280.351 35.105C283.396 35.105 285.986 34.16 288.016 32.515L291.201 35.63C291.341 35.805 291.551 35.77 291.726 35.63L292.986 34.265C293.126 34.125 293.126 33.95 292.951 33.775ZM280.351 32.55C274.891 32.55 271.041 28.525 271.041 22.505C271.041 16.52 274.891 12.495 280.351 12.495C285.811 12.495 289.661 16.52 289.661 22.505C289.661 24.99 288.996 27.125 287.841 28.805L285.041 26.075C284.901 25.935 284.691 25.935 284.551 26.075L283.291 27.44C283.116 27.58 283.116 27.755 283.291 27.93L286.091 30.66C284.551 31.85 282.591 32.55 280.351 32.55ZM315.33 10.395V24.255C315.295 29.82 312.74 32.55 308.015 32.55C303.22 32.55 300.665 29.785 300.665 24.255V10.395C300.665 10.185 300.525 10.045 300.315 10.045H298.215C298.005 10.045 297.865 10.185 297.865 10.395V24.255C297.865 28.945 299.58 35.105 308.015 35.105C316.415 35.105 318.13 28.945 318.13 24.255V10.395C318.13 10.185 317.99 10.045 317.78 10.045H315.68C315.47 10.045 315.33 10.185 315.33 10.395ZM338.646 32.445H327.726C327.516 32.445 327.376 32.305 327.376 32.095V24.465C327.376 24.255 327.516 24.115 327.726 24.115H335.321C335.531 24.115 335.671 23.975 335.671 23.765V21.91C335.671 21.7 335.531 21.56 335.321 21.56H327.726C327.516 21.56 327.376 21.42 327.376 21.21V12.95C327.376 12.74 327.516 12.6 327.726 12.6H338.296C338.506 12.6 338.646 12.46 338.646 12.25V10.395C338.646 10.185 338.506 10.045 338.296 10.045H324.926C324.716 10.045 324.576 10.185 324.576 10.395V34.65C324.576 34.86 324.716 35 324.926 35H338.646C338.856 35 338.996 34.86 338.996 34.65V32.795C338.996 32.585 338.856 32.445 338.646 32.445ZM365.47 10.045H346.15C345.94 10.045 345.8 10.185 345.8 10.395V12.25C345.8 12.46 345.94 12.6 346.15 12.6H361.585C361.865 12.6 361.97 12.845 361.795 13.055L345.94 32.69C345.835 32.83 345.8 32.97 345.8 33.145V34.65C345.8 34.86 345.94 35 346.15 35H365.47C365.68 35 365.82 34.895 365.82 34.65V32.795C365.82 32.585 365.68 32.445 365.47 32.445H350C349.72 32.445 349.615 32.2 349.79 31.99L365.68 12.32C365.785 12.18 365.82 12.075 365.82 11.9V10.395C365.82 10.185 365.68 10.045 365.47 10.045Z" fill="black"/>
</svg>
